<svg xmlns="http://www.w3.org/2000/svg" width="100" viewBox="0 0 284.72 301.02"><path d="M271 143.89a2.43 2.43 0 00-1.92-.84 2.58 2.58 0 00-1.39.39 2.42 2.42 0 00-1 1.15q-1.47 3.27-3.28 6.54a33.87 33.87 0 01-4.1 5.91 20.38 20.38 0 01-5.08 4.28 13 13 0 01-11.83.42 10.83 10.83 0 01-3.76-3.24 29.63 29.63 0 005.08-3.13 23.22 23.22 0 004.07-4 18 18 0 002.68-4.67 14.62 14.62 0 001-5.36 9.75 9.75 0 00-.76-4 9.19 9.19 0 00-2-3 9 9 0 00-2.82-1.88 8.07 8.07 0 00-3.16-.66 10.17 10.17 0 00-5 1.25 12 12 0 00-3.89 3.48 16.43 16.43 0 00-2.51 5.22c-.08.28-.14.56-.21.85-.16.4-.48 1.29-.71 1.71q-1.18 2.3-3 5.35a44.67 44.67 0 01-4 5.81 26.6 26.6 0 01-4.87 4.7 9.34 9.34 0 01-5.64 1.95 7.24 7.24 0 01-2.16-.38 6 6 0 01-2.22-1.36 7.45 7.45 0 01-1.74-2.61 10.52 10.52 0 01-.7-4.14 30.84 30.84 0 01.21-3.55c.14-1.2.3-2.42.49-3.65s.35-2.42.49-3.59a30 30 0 00.2-3.34q0-4-2.08-5.7a9.24 9.24 0 00-6.06-1.74h-4.52a26.2 26.2 0 00-.24-3.27 20.62 20.62 0 00-.8-3.59 8.71 8.71 0 00-1.57-2.89 3.29 3.29 0 00-2.61-1.18 4 4 0 00-2.78 1.43 16.61 16.61 0 00-2.51 3.37 21.45 21.45 0 00-1.77 4 11 11 0 00-.66 3.2 3.7 3.7 0 002.47 3.83 7.61 7.61 0 002.33.49c.83 0 1.64.07 2.43.07-.41 2-.76 3.55-1 4.52a14.14 14.14 0 01-.82 2.12 27.53 27.53 0 01-2.28 3.93 11.9 11.9 0 01-2.74 2.86 11.28 11.28 0 01-3.41 1.67 15 15 0 01-4.25.55h-.91a4.73 4.73 0 01-.83-.07 20.92 20.92 0 00.56-4.66 30.53 30.53 0 00-.77-7.31 16.19 16.19 0 00-2-5 8.41 8.41 0 00-3-2.85 7.37 7.37 0 00-3.55-.9 6 6 0 00-5 2.5 10.35 10.35 0 00-1.92 6.47 15.63 15.63 0 002.65 8.91 18.09 18.09 0 006.75 6.12 12.2 12.2 0 01-4 4.7 11.14 11.14 0 01-6.58 2.02 10 10 0 01-4-.8 9.57 9.57 0 01-3.13-2.23 9.77 9.77 0 01-2-3.41 12.93 12.93 0 01-.69-4.28 14.76 14.76 0 01.69-4.66 14 14 0 011.78-3.62 12.23 12.23 0 012.33-2.54 13.43 13.43 0 012.37-1.57 9.92 9.92 0 001.84-1.15 2.12 2.12 0 00.73-1.77 2.35 2.35 0 00-.59-1.67 2.32 2.32 0 00-1.77-.63 7.87 7.87 0 00-3.14 1.08 16.12 16.12 0 00-4.17 3.27 21.16 21.16 0 00-3.4 4.94 2.24 2.24 0 00-.2.38l-.07.14a53.32 53.32 0 01-4.06 6.58 46.52 46.52 0 01-5.64 6.75 58.68 58.68 0 01-7.51 6.3 54.72 54.72 0 01-9.36 5.29v-5.26-19.09h13.53a2.54 2.54 0 100-5.08H118.7c1.53-2.93 3-5.87 4.45-8.85a130.75 130.75 0 005.85-14.54 112.18 112.18 0 004-15.38 90.85 90.85 0 001.46-16.42 52 52 0 00-.56-7.73 24 24 0 00-1.81-6.43 11.69 11.69 0 00-3.27-4.39 7.6 7.6 0 00-4.94-1.63 7.21 7.21 0 00-6.09 3.37q-2.4 3.38-3.79 9.85a112.54 112.54 0 00-2 15.86q-.63 9.41-.83 21.37-.15 6.25-.21 13.26c0 3.82-.08 7.72-.12 11.66h-10.36a2.54 2.54 0 100 5.08h9.7c-.91 2-1.9 4-3 6a34.46 34.46 0 01-4.11 5.91 20.2 20.2 0 01-5.07 4.26 13 13 0 01-11.83.42 10.83 10.83 0 01-3.76-3.24 29.25 29.25 0 005.08-3.13 22.87 22.87 0 004.07-4 18 18 0 002.68-4.67 14.62 14.62 0 001-5.36 9.75 9.75 0 00-.77-4 9.19 9.19 0 00-2-3 9.06 9.06 0 00-2.81-1.88 8.12 8.12 0 00-3.17-.66 10.17 10.17 0 00-5 1.25 12.24 12.24 0 00-3.89 3.48 16.65 16.65 0 00-2.51 5.22c-.1.37-.19.75-.28 1.13a10 10 0 01-.71 1.49 41.24 41.24 0 01-2.29 4.07 35.9 35.9 0 01-3 4.1 19.48 19.48 0 01-3.41 3.2 5.88 5.88 0 01-3.44 1.29 8.54 8.54 0 01-3.41-.63 10.42 10.42 0 01-2.55-1.31 8 8 0 01-1.67-1.74 11.51 11.51 0 01-.9-1.46 29.31 29.31 0 00.21-3.41 25.67 25.67 0 00-.7-5.91 16.94 16.94 0 00-2.16-5.22 11.8 11.8 0 00-3.65-3.69 9.45 9.45 0 00-5.19-1.39 8.38 8.38 0 00-3.3.66 8.74 8.74 0 00-4.7 4.8 9.86 9.86 0 00-.28 6.44 11.8 11.8 0 001.19 2.75 7.46 7.46 0 001.8 2.08 3.9 3.9 0 002.47.83 2.68 2.68 0 001.78-.69 2.38 2.38 0 00.8-1.88 2.68 2.68 0 00-1.19-2.3 4 4 0 01-1.6-1.74 4.86 4.86 0 01-.42-1.95c0-.13 0-.41.07-.83a3.74 3.74 0 01.42-1.29A3.59 3.59 0 0140 138a3.2 3.2 0 011.95-.52 4.35 4.35 0 012.86 1 7.85 7.85 0 012 2.54 13.35 13.35 0 011.19 3.53 20.28 20.28 0 01.38 3.93 19 19 0 01-.86 5.71 18.35 18.35 0 01-2.41 5 13 13 0 01-3.61 3.55 8 8 0 01-4.5 1.33 6.55 6.55 0 01-4.17-1.43 12.29 12.29 0 01-3.13-3.82 24.54 24.54 0 01-2.16-5.5 45.47 45.47 0 01-1.25-6.51q3.06-6.81 6.19-14.44t5.67-15.52A147 147 0 0042.32 101a77.45 77.45 0 001.6-15.38 49.31 49.31 0 00-.69-8.56 25 25 0 00-2.06-6.64 11.86 11.86 0 00-3.34-4.28 7.24 7.24 0 00-4.55-1.53 8.59 8.59 0 00-3.28.69 9 9 0 00-3.27 2.61 21.22 21.22 0 00-3 5.36 47.49 47.49 0 00-2.51 9A120 120 0 0019.5 95.7q-.63 7.89-.63 18.68 0 5.64.14 11.9t.73 12.39a116.43 116.43 0 001.7 11.69 43.08 43.08 0 003.1 9.78 19.28 19.28 0 005 6.71 10.88 10.88 0 007.23 2.51 12.41 12.41 0 004.49-.84 16.07 16.07 0 004.14-2.33 20.66 20.66 0 003.55-3.51 21.79 21.79 0 002.72-4.46 16.08 16.08 0 004.1 2.89 13.26 13.26 0 006.13 1.29 9.6 9.6 0 004.31-1 18.27 18.27 0 003.9-2.65 28.49 28.49 0 003.34-3.51c.46-.59.9-1.15 1.3-1.71.15.67.31 1.35.51 2a19.19 19.19 0 003.2 6.37 16.55 16.55 0 005.49 4.59 16.77 16.77 0 007.94 1.78 18.81 18.81 0 0012.84-5.5 39.05 39.05 0 006-7.54v1.87q0 7.2-.07 13.77t0 12.32v10.06q0 8.7.17 16.11a76.84 76.84 0 001.17 12.85 21.23 21.23 0 003.38 8.56 7.6 7.6 0 006.47 3.1 8.36 8.36 0 005.08-1.64 13.33 13.33 0 003.79-4.49 23.74 23.74 0 002.38-6.74 41 41 0 00.8-8.25 56.74 56.74 0 00-.94-10.05 63.82 63.82 0 00-2.78-10.41 59.49 59.49 0 00-4.63-9.91 45.86 45.86 0 00-6.54-8.67 62.9 62.9 0 0010.37-6 57.88 57.88 0 007.89-6.79 48.61 48.61 0 004-4.69 16.69 16.69 0 00.7 2.47 14.25 14.25 0 003.14 4.94 14.44 14.44 0 004.73 3.2 15.29 15.29 0 006 1.15 16.65 16.65 0 005.15-.77 16.07 16.07 0 004.28-2.09 16.26 16.26 0 003.37-3.09 20.38 20.38 0 002.51-3.87 14.64 14.64 0 003.06.28 17.88 17.88 0 0010.68-3 17.12 17.12 0 003.69-3.34 28 28 0 002.75-4c.16-.32.32-.67.49-1 .08-.15.32-.72.49-1.17s.4-1.17.66-2 .52-1.76.8-2.85.51-2.26.69-3.51c.88-.05 1.71-.07 2.47-.07H199a3.6 3.6 0 012.61.66 2.86 2.86 0 01.6 2 33.59 33.59 0 01-.7 6.58 35.09 35.09 0 00-.7 6.92 16.71 16.71 0 001 5.88 13.29 13.29 0 002.61 4.39 11.12 11.12 0 003.86 2.71 12 12 0 004.73.94 13.47 13.47 0 007.41-2.16 28 28 0 006.09-5.29 46.6 46.6 0 004.58-6.29c.12.57.27 1.13.43 1.7a19.58 19.58 0 003.2 6.37 16.26 16.26 0 0013.44 6.37 18.81 18.81 0 0012.83-5.5q5.69-5.35 10.48-15.94a3.54 3.54 0 00.21-.52 2.45 2.45 0 00.07-.59 2.74 2.74 0 00-.75-1.85zm-154.91-15c0-1.58.06-3.06.11-4.46s.08-2.8.1-4.24.06-3.09.1-4.94v-4c0-1.79.07-3.79.14-6.09s.17-4.75.31-7.37.32-5.25.56-7.87.52-5.13.87-7.55a49.72 49.72 0 011.29-6.4 16.72 16.72 0 011.8-4.45 2.93 2.93 0 012.44-1.67 3.1 3.1 0 012.4 1.15 8.28 8.28 0 011.67 3 21.52 21.52 0 011 4.63 52.67 52.67 0 01.32 6 91 91 0 01-1 13.29 108.37 108.37 0 01-2.71 12.94 112.22 112.22 0 01-4.14 12.29 118.65 118.65 0 01-5.25 11.3c-.01-2.09 0-3.95.02-5.52zm-91.38 4.91c-.09-1.67-.17-3.5-.24-5.5s-.13-4.09-.17-6.3-.07-4.37-.07-6.5q0-9.61.52-16.7c.35-4.74.79-8.78 1.32-12.15a67.26 67.26 0 011.78-8.31 30.14 30.14 0 011.94-5.12 8.63 8.63 0 011.85-2.57 2.47 2.47 0 011.43-.73 3.25 3.25 0 012.75 1.53 12.34 12.34 0 011.7 3.83 28.4 28.4 0 01.87 5q.24 2.75.24 5.25A74.8 74.8 0 0137.38 99a135 135 0 01-3.2 13.5q-1.95 6.67-4.39 13.11T25 137.9c-.1-1.06-.19-2.43-.29-4.1zm55 17.53a15.42 15.42 0 01-.24-2.64 22.67 22.67 0 01.38-4.07 14.38 14.38 0 011.22-3.72 8 8 0 012.16-2.72 5 5 0 013.2-1 3.3 3.3 0 012.44 1.08 4.39 4.39 0 011 3.16 10.36 10.36 0 01-.7 3.73 13.83 13.83 0 01-2 3.51 16.17 16.17 0 01-3 3.06 16.89 16.89 0 01-3.93 2.3c-.16-.88-.35-1.76-.52-2.69zm41.66 34.45a60 60 0 014 8.8 54.39 54.39 0 012.43 9.23 52.9 52.9 0 01.8 8.9 42.65 42.65 0 01-.28 4.35 29.88 29.88 0 01-1 5.25 14.43 14.43 0 01-2 4.46 4 4 0 01-3.41 1.88c-1.53 0-2.7-1-3.51-3.1a32.79 32.79 0 01-1.81-8.14 105.61 105.61 0 01-.66-11.38q-.07-6.33-.07-12.8v-6.93-8.17a40.51 40.51 0 015.52 7.65zm46.69-34.24a10.29 10.29 0 01-2.54-2.19 14.72 14.72 0 01-1.81-2.71 12.71 12.71 0 01-1.08-2.89 12.09 12.09 0 01-.35-2.78 3.77 3.77 0 01.7-2.72 1.9 1.9 0 011.11-.62 2.21 2.21 0 011.81 1 8.78 8.78 0 011.29 2.64 22.22 22.22 0 01.8 3.58 28 28 0 01.28 3.83 19.94 19.94 0 01-.2 2.86zm18.65-19.13c.09-.37.23-.84.41-1.39a15.1 15.1 0 01.63-1.57 13.91 13.91 0 01.66-1.25c.21-.35.38-.53.52-.53s.27.19.39.56a7.83 7.83 0 01.27 1.32c.07.52.12 1 .15 1.57s0 1 0 1.29zM236 151.33a15.42 15.42 0 01-.24-2.64 21.8 21.8 0 01.38-4.07 14 14 0 011.22-3.72 7.83 7.83 0 012.16-2.72 5 5 0 013.2-1 3.26 3.26 0 012.43 1.08 4.35 4.35 0 011.05 3.16 10.58 10.58 0 01-.7 3.73 13.83 13.83 0 01-2 3.51 15.94 15.94 0 01-3 3.06 16.69 16.69 0 01-3.93 2.3c-.19-.88-.39-1.76-.57-2.69z"/><path d="M0 116.63V1.26h14.91C25 1.26 32.81 3.14 38 8s7.84 12.4 7.84 23.86c0 5.49-.47 9.57-2.19 13.34s-4.4 6.91-8.32 10.52c4.24 2.35 7.38 6.75 9.89 14.12A44.09 44.09 0 0147.09 84c0 8.63-1.57 16.33-5.49 22.29s-10.68 9.89-20.72 10.36zm17-67.81c1.42 0 4.71.16 7.54-1.73s5-5.65 5-13.65-2.2-11.77-5-13.66-6.17-1.72-7.54-1.72zm0 51c1.42 0 4.71.31 7.54-1.73s5-6.59 5-16-2.2-14-5-16-6.17-1.73-7.54-1.73zM85.06 116.63L76.27 68h-4.55v48.66H54.77V1.26h16.95c20.28 0 28.88 11.46 28.88 33.28 0 11.46-3 21.82-9.42 26.21L102 116.63zM71.72 52.27c2.35 0 5.49-.31 8-2.51s4.56-6.43 4.56-14.6-2-12.55-4.56-14.75-5.65-2.35-8-2.35zM153.34 92.93a31.6 31.6 0 01-2.82 12.56 21.6 21.6 0 01-6.75 8.47c-3.14 2.51-7.38 3.93-13 3.93s-10.05-1.42-13.19-3.93a21.07 21.07 0 01-6.59-8.47 31.44 31.44 0 01-2.83-12.56V25A31.29 31.29 0 01111 12.56a21.52 21.52 0 016.59-8.63c3.1-2.36 7.5-3.93 13.15-3.93s9.89 1.57 13 3.93a22.05 22.05 0 016.75 8.63A31.46 31.46 0 01153.34 25zm-17-68c0-3.14-.63-5.34-2.2-7.22a4.89 4.89 0 00-3.45-1.25c-3 0-4.4 2.19-5 4.23a12.08 12.08 0 00-.62 4.24v68c0 3.29.78 5.49 2.35 7.22a4.54 4.54 0 003.3 1.26c3 0 4.39-1.89 5-4.24a11 11 0 00.63-4.24zM187.01 116.63h-13.18L158.29 1.26h15.69l6.75 59.96.32 3.77h1.25l.47-3.77 7.22-59.96h12.25l7.22 59.96.47 3.77h1.25l.32-3.77 6.75-59.96h15.69L218.4 116.63h-13.18l-7.85-54.62-.94-6.75h-.63l-.94 6.75-7.85 54.62zM268.08 32.18c0-3.76-.15-8-1.25-11.3-1.1-3.14-2.83-5.34-5.5-5.34-4.39.16-5.8 4.71-5.8 11.46 0 3.93 1.72 8 4.24 12.4s5.8 9 9.1 13.82A176.51 176.51 0 01279.7 70.8c3 5.8 5 11.77 5 18 0 7.69-1.25 14.91-4.86 20.25s-9.42 8.79-18.68 8.79c-10.83 0-17-4.08-20.41-10.36s-4.24-14.6-4.24-23.23l16.64-1.57c0 4.86.16 9.73 1.42 13.34 1.09 3.77 3 6.28 6.59 6.28 5 0 6.9-5.34 6.9-12.72 0-3.76-1.88-8.16-4.39-12.71-1.41-2.2-2.83-4.55-4.4-6.91-3.29-4.71-6.9-10-10.67-15.85a65.78 65.78 0 01-8.32-17.9 30.85 30.85 0 01-1.39-9.21c0-6.28 1.41-13 5-18.21A20.6 20.6 0 01261 0c10.2-.15 16.17 4.09 19.47 10.21 3.29 6.28 4.23 14 4.23 20.4zM0 299.76V184.39h14.91c10.05 0 17.9 1.89 23.08 6.75s7.84 12.4 7.84 23.86c0 5.49-.47 9.58-2.19 13.34s-4.4 6.91-8.32 10.52c4.24 2.35 7.38 6.75 9.89 14.13a44.06 44.06 0 011.88 14.12c0 8.64-1.57 16.33-5.49 22.29s-10.68 9.89-20.72 10.36zM17 232c1.42 0 4.71.16 7.54-1.72s5-5.65 5-13.66-2.2-11.77-5-13.66-6.12-1.72-7.54-1.72zm0 51c1.42 0 4.71.31 7.54-1.73s5-6.59 5-16-2.2-14-5-16-6.12-1.73-7.54-1.73zM85.06 299.76l-8.79-48.66h-4.55v48.66H54.77V184.39h16.95c20.25 0 28.88 11.46 28.88 33.28 0 11.46-3 21.82-9.42 26.21L102 299.76zm-13.34-64.35a11.77 11.77 0 008-2.52c2.52-2.19 4.56-6.43 4.56-14.59s-2-12.56-4.56-14.76-5.65-2.35-8-2.35zM153.34 276.06a31.6 31.6 0 01-2.82 12.56 21.6 21.6 0 01-6.75 8.47c-3.14 2.52-7.38 3.93-13 3.93s-10.05-1.41-13.19-3.93a21.07 21.07 0 01-6.59-8.47 31.44 31.44 0 01-2.83-12.56v-68a31.29 31.29 0 012.83-12.4 21.52 21.52 0 016.59-8.63c3.14-2.35 7.54-3.92 13.19-3.92a21.13 21.13 0 0113 3.92 22.05 22.05 0 016.75 8.63 31.46 31.46 0 012.82 12.4zm-17-68c0-3.14-.63-5.33-2.2-7.22a4.89 4.89 0 00-3.45-1.25c-3 0-4.4 2.2-5 4.24a12 12 0 00-.62 4.23v68c0 3.3.78 5.49 2.35 7.22a4.5 4.5 0 003.3 1.26c3 0 4.39-1.89 5-4.24a11 11 0 00.63-4.24zM191.64 215.31c0-3.76-.16-8-1.25-11.3-1.1-3.14-2.83-5.33-5.5-5.33-4.39.15-5.81 4.7-5.81 11.45 0 3.93 1.73 8 4.24 12.4s5.81 8.95 9.11 13.82a179.57 179.57 0 0110.83 17.58c3 5.81 5 11.77 5 18.05 0 7.69-1.26 14.91-4.87 20.25S194 301 184.74 301c-10.84 0-17-4.08-20.41-10.36s-4.24-14.6-4.24-23.23l16.64-1.57c0 4.86.16 9.73 1.41 13.34 1.1 3.77 3 6.28 6.6 6.28 5 0 6.9-5.34 6.9-12.72 0-3.76-1.88-8.16-4.39-12.71-1.42-2.2-2.83-4.55-4.4-6.91-3.3-4.71-6.91-10-10.67-15.85a65.56 65.56 0 01-8.32-17.89 31 31 0 01-1.41-9.27c0-6.27 1.41-13 5-18.2a20.54 20.54 0 0117.11-8.79c10.2-.16 16.17 4.08 19.46 10.2 3.3 6.28 4.24 14 4.24 20.4z" fill="#dba2b0"/><path d="M121.38 185.78a60 60 0 014 8.8 54.39 54.39 0 012.43 9.23c.07.38.09.74.15 1.12h5.3c-.1-.74-.16-1.46-.3-2.2a63.82 63.82 0 00-2.78-10.41 59.49 59.49 0 00-4.63-9.91c-.22-.39-.5-.73-.73-1.1h-6.36a40.93 40.93 0 012.92 4.47zM128.19 98a108.37 108.37 0 01-2.71 12.94 111 111 0 01-4 11.91h5.28c.8-2 1.57-4.06 2.27-6.13a112.18 112.18 0 004-15.38c.38-2.07.66-4.17.89-6.29h-5.37c-.14.95-.21 1.95-.36 2.95zM24.23 115.5q0-9.61.52-16.7c.1-1.32.2-2.58.31-3.79h-5.5c0 .24 0 .45-.06.69q-.63 7.89-.63 18.68v3.7h5.37c.01-.86-.01-1.73-.01-2.58z"/></svg>