<svg xmlns="http://www.w3.org/2000/svg" viewBox="0 0 488.99 227.22" fill="#1a1a18" width="100"><path d="M242.26 223.52a22.37 22.37 0 012.83.85l2.82 1.08a21.59 21.59 0 002.89.93 12.45 12.45 0 003 .4 16.41 16.41 0 005.77-1 14.82 14.82 0 005-3.08 17.46 17.46 0 003.79-5.19.63.63 0 01.61-.35 1 1 0 01.74.35v-55.17H274V160h-21.32v2.33H257v52.73c0 3.05-.46 5.26-1.38 6.67a4 4 0 01-4 1.78 6 6 0 01-3.6-1.78 13.22 13.22 0 01-2.68-4 33.33 33.33 0 01-1.88-5.52 58 58 0 01-1.25-6.3c-.33-2.18-.61-4.31-.8-6.44s-.34-4-.47-5.84-.2-3.34-.29-4.61H238v36.39h2a2.23 2.23 0 01.4-1.44 1.17 1.17 0 01.86-.49 4.26 4.26 0 011-.08zM291.92 178.08l5.65 23.21h-11.42zm6.37 26.1l4.77 18.9h-4.22v2.36H320v-2.36h-4.59L298.84 159H286.6l2.88 10.88L277.33 219a9.62 9.62 0 01-1.13 2.88 2.91 2.91 0 01-1.86 1.08 19.62 19.62 0 01-3.49.17v2.36h15.66v-2.36c-1.49 0-2.62 0-3.43-.11a2.56 2.56 0 01-1.54-.53 1.46 1.46 0 01-.26-1.27c.11-.58.29-1.36.55-2.32l3.59-14.67zM355 186.61V160h-2.61a14 14 0 01-.16 2.53 2 2 0 01-.53 1.09.61.61 0 01-.67.09 2 2 0 01-.61-.57 10.13 10.13 0 00-2.67-2.59 12.59 12.59 0 00-3.5-1.56 15 15 0 00-4-.53 14.4 14.4 0 00-6.84 1.77 20.92 20.92 0 00-6 4.9 31.7 31.7 0 00-4.76 7.45 44.17 44.17 0 00-3.15 9.4 51.91 51.91 0 000 21.45 43.36 43.36 0 003.15 9.33 31.43 31.43 0 004.76 7.38 21.13 21.13 0 006 4.87 14.51 14.51 0 006.84 1.76 13.64 13.64 0 004.2-.67 14.07 14.07 0 003.38-1.59 16.72 16.72 0 002.59-2 .94.94 0 011-.32 1.44 1.44 0 01.75.67 4.53 4.53 0 01.52 2.56H355v-29.26h-2.17a30.32 30.32 0 01-.58 5.77 54.07 54.07 0 01-1.53 6.18 56.86 56.86 0 01-2.27 6 36.3 36.3 0 01-2.78 5.09 15.38 15.38 0 01-3 3.53 4.9 4.9 0 01-3.12 1.34 4.21 4.21 0 01-2.43-.76 7 7 0 01-2.13-2.56 18.46 18.46 0 01-1.54-4.79c-.3-1.57-.56-3.43-.8-5.57s-.39-4.67-.52-7.55-.22-6.27-.22-10.1c0-3.52 0-6.65.17-9.4s.23-5.14.42-7.22.42-3.93.67-5.51a18.71 18.71 0 011.57-5.13 9.09 9.09 0 012.5-3.2 4.88 4.88 0 013-1.11 4.28 4.28 0 012.83 1.37 17 17 0 012.84 3.65 37 37 0 012.64 5.07c.82 1.86 1.57 3.74 2.2 5.67a50.07 50.07 0 011.49 5.4 19 19 0 01.58 4.28zM378.25 162.34h4.24V160h-20.77v2.33H366v60.74h-4.31v2.36h20.61v-2.36h-4.05v-27.18l3.78-6.84 7.82 34h-3.68v2.36h21v-2.36h-3.94l-11.08-42.84h-4.5l8.55-15.92a3.74 3.74 0 011.38-1.57 3.46 3.46 0 011.86-.41h2.17V160h-12.7v2.33h1.89c.68 0 1.07.08 1.19.3s0 .66-.38 1.32l-13.32 23.83z"/><path d="M406.23 160v2.33h4.23v60.74h-4.23v2.36h35V194h-2.69c.11 2.7.15 5.4.11 8.07a46.36 46.36 0 01-.73 7.63 20.28 20.28 0 01-2.38 6.48 13.13 13.13 0 01-4.79 4.68 18.89 18.89 0 01-7.95 2.21v-31.32a6.73 6.73 0 014.13 1.64 10.05 10.05 0 012.7 4.08 24.7 24.7 0 011.35 6.1 52.09 52.09 0 01.18 7.71H433V173h-1.87a36.68 36.68 0 01-.52 9.15 9.22 9.22 0 01-2.66 5.24 7.52 7.52 0 01-5.18 1.7v-26.75a24.11 24.11 0 017.54 1 10.58 10.58 0 014.72 3 12.21 12.21 0 012.54 4.88 30.17 30.17 0 01.88 6.71c.06 2.53 0 5.34-.21 8.43h2.61V160zM457.6 225.44h20.6v-2.36h-4.14v-60.92a11.9 11.9 0 017.21 4.2 21.16 21.16 0 014.14 9.32 52.45 52.45 0 01.79 14.09h2.8V160h-41.92v29.76h2.78a54.53 54.53 0 01.78-13.94 21.81 21.81 0 014-9.34 11.85 11.85 0 017.06-4.33v60.92h-4.1zM22.31 225.44a19.2 19.2 0 006.73-1 15.88 15.88 0 005.19-2.93 17.09 17.09 0 003.69-4.37 21.55 21.55 0 002.2-5.34 23.44 23.44 0 00.73-5.73 21.45 21.45 0 00-.8-5.78 20.08 20.08 0 00-2.34-5.16 16.22 16.22 0 00-3.86-4.07 15.38 15.38 0 00-5.24-2.53 12 12 0 004.26-2.81 14.45 14.45 0 003.2-5 20.48 20.48 0 001.26-7.31 15.93 15.93 0 00-1.21-6.41 10.51 10.51 0 00-3.39-4.22 13.84 13.84 0 00-5.18-2.25A25.68 25.68 0 0021 160H0v2.33h4.24v60.74H.09v2.36zm3.51-5.61a3.59 3.59 0 01-.54 2 2.56 2.56 0 01-1.29.93 5.63 5.63 0 01-1.55.28H16.2v-32.28h6.91a2.33 2.33 0 012 .93 4.57 4.57 0 01.75 2.77zm0-36a5.36 5.36 0 01-.75 3.08 2.3 2.3 0 01-2 1H16.2v-25.57h5.39a5 5 0 013.05.85 3 3 0 011.18 2.47zM59.56 178.08l5.66 23.21H53.8zm6.44 26.1l4.75 18.9h-4.27v2.36h21.13v-2.36H83L66.48 159H54.25l2.88 10.88L45 219a9.86 9.86 0 01-1.14 2.88 2.91 2.91 0 01-1.86 1.03 19.38 19.38 0 01-3.48.17v2.36h15.63v-2.36a33.94 33.94 0 01-3.41-.11 2.48 2.48 0 01-1.54-.53 1.4 1.4 0 01-.26-1.27c.11-.58.28-1.36.54-2.32l3.59-14.67z"/><path d="M101.29 188v-25.66h6a5.31 5.31 0 012.93.7 3.55 3.55 0 011.5 1.92 8.37 8.37 0 01.43 2.87v14.75a6.08 6.08 0 01-1.13 4.08 5.26 5.26 0 01-4 1.32zm7.92-28H84.92v2.33h4.22v60.74H85v2.36h20.7v-2.36h-4.41v-32.13h4.86a4.09 4.09 0 011.52.21 2.31 2.31 0 011.22 1.11 6.27 6.27 0 01.5 2.73v20.52a12.85 12.85 0 001.59 6.67 9.36 9.36 0 004.39 3.83 16.28 16.28 0 006.52 1.21 15.1 15.1 0 004-.52 10.14 10.14 0 003.53-1.65A8.14 8.14 0 00132 222l-1.43-2.88a4.62 4.62 0 01-.69 2.42 4.91 4.91 0 01-1.72 1.64 4.15 4.15 0 01-2.18.61 3.91 3.91 0 01-3-1.15 5.71 5.71 0 01-1.23-2.88 25.41 25.41 0 01-.22-3.8V198a14.44 14.44 0 00-.85-4.86 9.28 9.28 0 00-2.28-3.58 4.8 4.8 0 00-3.26-1.38 16.31 16.31 0 004.94-2.69 12.2 12.2 0 003-3.55 13.6 13.6 0 001.41-4 18.11 18.11 0 00.31-4.06 15.35 15.35 0 00-1-5.56 11.8 11.8 0 00-2.86-4.45A12.68 12.68 0 00116 161a19.44 19.44 0 00-6.79-1zM151.4 158.47a14.27 14.27 0 00-6.79 1.75 20.67 20.67 0 00-5.92 4.86 31.49 31.49 0 00-4.63 7.42 43.64 43.64 0 00-3.07 9.37 54 54 0 000 21.58 43.63 43.63 0 003.07 9.39 30.68 30.68 0 004.63 7.36 21 21 0 005.92 4.85 14.23 14.23 0 0013.6 0 21.21 21.21 0 005.95-4.85 31.83 31.83 0 004.71-7.36 43.11 43.11 0 003.09-9.39 52.54 52.54 0 000-21.58 43.11 43.11 0 00-3.09-9.37 32.69 32.69 0 00-4.71-7.42 20.91 20.91 0 00-5.95-4.86 14.41 14.41 0 00-6.81-1.75m.09 2.7a9.06 9.06 0 012.29.18 4 4 0 012 1.08 7.34 7.34 0 011.73 2.85 26.31 26.31 0 011.32 5.41c.37 2.3.66 5.26.87 8.86s.29 7.94.29 13.12-.11 9.53-.29 13.12-.5 6.55-.87 8.86a26.07 26.07 0 01-1.32 5.39 7.17 7.17 0 01-1.73 2.8 4.17 4.17 0 01-2 1.07 11.39 11.39 0 01-2.29.16 8.85 8.85 0 01-2.26-.2 3.91 3.91 0 01-2-1.1 7.86 7.86 0 01-1.7-2.83 26.5 26.5 0 01-1.32-5.41c-.37-2.32-.66-5.25-.86-8.82s-.3-8-.3-13 .11-9.46.3-13 .49-6.52.86-8.83a26.19 26.19 0 011.32-5.44 8.05 8.05 0 011.7-2.88 4.1 4.1 0 012-1.12 8.85 8.85 0 012.26-.27zM220 162.34V160h-13v2.33h3a2 2 0 011.2 1.23 8.43 8.43 0 01.24 2.46v29.69L191.07 160h-13.76v2.33h4.4v57.41a5.55 5.55 0 01-.33 2.33 1.72 1.72 0 01-1.46 1h-2.61v2.36h13.31v-2.36h-3.15a1.56 1.56 0 01-1.17-1.1 10.29 10.29 0 01-.18-2.5v-38.7l25.37 44.66h4.32v-59.6a6.11 6.11 0 01.32-2.43 1.93 1.93 0 011.39-1.07z"/><path d="M226.57 125.41V121h7V48.51h-7l1.52-1.51a21.79 21.79 0 005.47-13.72V4.42h-7V0h24.94v32.76a21.64 21.64 0 01-5.7 14.47l-1.28 1.28h7v76.9zM287.86 4.42V0H262.9v125.41l17.94-20.67.04-100.32h6.98zM197.59 4.45V.04h24.96v125.4l-17.96-20.67-.03-100.32h-6.97z" fill-rule="evenodd"/></svg>