<svg xmlns="http://www.w3.org/2000/svg" width="450" height="315"><g fill="#D51221"><path d="M225.7 91.1l-27.7-41s-1.9-2.8-4.7-2.8h-32.5c-1.2 0-2.2 1-2.2 2.3 0 .5.1.9.4 1.3l27.6 40.9s1.9 2.8 4.7 2.8h32.4c1.2 0 2.2-1 2.2-2.2.1-.6 0-1-.2-1.3zM288.3 91.1L228.7 2.8S226.8 0 224 0h-32.5c-1.2 0-2.2 1-2.2 2.3 0 .5.1.9.4 1.3l59.5 88.1s1.9 2.8 4.7 2.8h32.4c1.2 0 2.2-1 2.2-2.2.1-.5 0-.9-.2-1.2zM225.7 104.9l-27.7 41s-1.9 2.8-4.7 2.8h-32.5c-1.2 0-2.2-1-2.2-2.2 0-.5.1-.9.4-1.3l27.6-40.9s1.9-2.8 4.7-2.8h32.4c1.2 0 2.2 1 2.2 2.3.1.3 0 .7-.2 1.1zM288.3 104.9l-27.7 41s-1.9 2.8-4.7 2.8h-32.5c-1.2 0-2.2-1-2.2-2.2 0-.5.1-.9.4-1.3l27.6-40.9s1.9-2.8 4.7-2.8h32.4c1.2 0 2.2 1 2.2 2.3.1.3 0 .7-.2 1.1zM62.6 249.3L39 214.4s-.6-.8-1.4-.9h-6.8-.1c-.9 0-1.4.9-1.4.9l-2.8 4.2L10 243.2H5.2s-.9 0-1.5.9l-3.5 5.2s-.6.9.3.9h42.8s.9 0 1.5-.9l3.5-5.2s.6-.9-.3-.9H18.4l15.8-23.4 19.9 29.5s.6.9 1.5.9h6.7s.9 0 .3-.9zM132.6 249.3L109 214.4s-.6-.8-1.4-.9h-6.8-.1c-.9 0-1.4.9-1.4.9l-23.5 34.9c-.6.9.3.9.3.9h6.7c.9 0 1.5-.9 1.5-.9l4.1-6.1h20.1s.9 0 1.5-.9l3.5-5.2s.6-.9-.3-.9h-20l11-16.3 19.9 29.5s.6.9 1.5.9h6.7c0-.1.9-.1.3-1zM185.8 213.5h-6.7c-.9 0-1.5.9-1.5.9L154 249.3c-.6.9.3.9.3.9h6.7c.9 0 1.5-.9 1.5-.9l23.5-34.9c.6-.9-.2-.9-.2-.9zm-24.6 21.8l-14.1-20.8s-.6-.9-1.5-.9H139s-.9 0-.3.9l14.1 20.8s.6.9 1.5.9h6.7c-.1 0 .8 0 .2-.9zM251.8 249.3l-23.5-34.9s-.6-.8-1.4-.9H220h-.1c-.9 0-1.4.9-1.4.9l-19.4 28.7h-4.7s-.9 0-1.5.9l-3.5 5.2s-.6.9.3.9h42.8s.9 0 1.5-.9l3.5-5.2s.6-.9-.3-.9h-29.6l15.8-23.4 19.9 29.5s.6.9 1.5.9h6.7c0 .1.9.1.3-.8zM303.2 234.5l3.5-5.2c.6-.9-.3-.9-.3-.9H282c-.9 0-1.5.9-1.5.9l-3.5 5.2c-.6.9.3.9.3.9h24.4c.9 0 1.5-.9 1.5-.9zm13.6-20.1s.6-.9-.3-.9H269.4c-.9 0-.9.9-.9.9V249.6c-.1.3-.1.6.4.6H311.7s.9 0 1.5-.9l3.5-5.2s.6-.9-.3-.9h-41v-22.6h36.3s.9 0 1.5-.9l3.6-5.3zM386.3 249.3l-23.5-34.9s-.6-.8-1.4-.9h-6.8-.1c-.9 0-1.4.9-1.4.9l-23.5 34.9c-.6.9.3.9.3.9h6.7c.9 0 1.5-.9 1.5-.9l19.9-29.5 19.9 29.5s.6.9 1.5.9h6.7c-.1 0 .8 0 .2-.9zM450 237.8c0-6.8-3.5-12.4-9.7-12.4H413.5s-.9 0-1.5.9l-3.5 5.2s-.6.9.3.9h29.7c2.9 0 4.6 2.4 4.6 5.4 0 3-1.6 5.3-4.6 5.3h-31.7v-28.7c0-.9-.9-.9-.9-.9h-5.2c-.9 0-.9.9-.9.9v34.9c0 .9.9.9.9.9H440.3c6.2 0 9.7-5.6 9.7-12.4zM383.3 278.4h-46.1s-.9 0-1.5.9l-3.5 5.2s-.6.9.3.9h22v28.7c0 .9.9.9.9.9h5.2c.9 0 .9-.9.9-.9v-28.7h17.2s.9 0 1.5-.9l3.5-5.2c-.1-.1.5-.9-.4-.9zM318.7 290.7c0-6.8-3.5-12.4-9.7-12.4h-39.6s-.9 0-.9.9v34.9s0 .9.9.9h5.2s.9 0 .9-.9v-28.7h31.7c2.9 0 4.6 2.4 4.6 5.3 0 3-1.6 5.3-4.6 5.3h-25.1s-.9 0-1.5.9l-3.5 5.2s-.6.9.3.9h31.5c6.3.1 9.8-5.5 9.8-12.3zM253.5 296.7c0-10.1-5.9-18.3-16.5-18.3h-27.3c-10.6 0-16.5 8.2-16.5 18.3 0 10.1 5.9 18.3 16.5 18.3H237c10.6 0 16.5-8.2 16.5-18.3zm-7 0c0 6.2-3.9 11.3-10.8 11.3H211c-6.9 0-10.8-5.1-10.8-11.3 0-6.2 3.9-11.3 10.8-11.3h24.8c6.9 0 10.7 5 10.7 11.3zM178.6 314.1v-34.9c0-.9-.9-.9-.9-.9h-41.1-5.5c-.9 0-.9.9-.9.9v34.9c0 .9.9.9.9.9h5.2c.9 0 .9-.9.9-.9v-28.7h34.5v28.7c0 .9.9.9.9.9h5.2c.8 0 .8-.9.8-.9zM113.4 279.2s.6-.9-.3-.9H78.8c-10.6 0-16.5 8.2-16.5 18.3 0 10.1 5.9 18.3 16.5 18.3H108.4s.9 0 1.5-.9l3.5-5.2s.6-.9-.3-.9h-33c-6.9 0-10.8-5.1-10.8-11.3 0-6.2 3.9-11.3 10.8-11.3H108.4s.9 0 1.5-.9l3.5-5.2z"/></g></svg>