<svg xmlns="http://www.w3.org/2000/svg" width="465" height="35.031"><path d="M19.883 35.017L8.34 20.217h-.158v14.8h-8.2V.292h8.141v14.02h.167L19.616.391h9.385l-13.868 16.5 14.616 18.123h-9.87zm11.815 0V.292h21.354l-2 6.486h-11.11v7.265H51.11v6.538H39.947v7.955h13v6.481H31.7zm118.775 0V17.31c0-1.26 0-2.684.055-3.736h-.055c-.321.738-1.77 2.794-2.363 3.691l-5.832 8.53h-3.611l-6.638-8.852a31.271 31.271 0 01-2.364-3.369h-.108c.05 1.158.05 2.529.05 3.475v17.968h-8.195V.292h7.436l8.9 12.119a47.331 47.331 0 012.751 4.116h.101a46.936 46.936 0 012.589-4.381L151.171.292h7.494v34.725h-8.2zm36.459 0l-3.4-8.272H171.99l-3.235 8.272h-8.087L174.641.133h6.459l14.728 34.884h-8.9zm-7.82-20.183a34.694 34.694 0 01-1.294-4.266h-.058a24.679 24.679 0 01-1.294 4.164l-2.151 5.581h6.739zm52.008-2.888a47.778 47.778 0 00-2.607 4.388h-.113a46.975 46.975 0 00-2.751-4.127L216.717.039h-7.47v34.853h8.226v-18.04c0-.935 0-2.321-.058-3.479h.112a32.073 32.073 0 002.376 3.381l6.664 8.885h3.633l5.847-8.567c.593-.916 2.054-2.961 2.383-3.7h.051c-.051 1.052-.051 2.476-.051 3.744v17.775h8.23V.039h-7.53zM262.677.008L248.7 34.892h8.087l3.244-8.276h11.55l3.387 8.276h8.9L269.151.008h-6.475zm-.341 20.192l2.17-5.584a26.979 26.979 0 001.3-4.168h.046a34.733 34.733 0 001.291 4.27l1.945 5.482h-6.754zM327.523.013l-13.531 33.8c-4.875-8.25-7.986-13.554-9.858-14.618v-.053c3.146-1.423 6.335-4.486 6.335-8.946 0-5.441-3.472-10.146-13.267-10.146H286.05v34.849h8.285V21.831h2.491c1.2.477 3.081 3.964 8.443 13.061h16.383l3.228-8.276h11.543l3.4 8.276h8.893L333.99.008h-6.467zM297.372 16.07h-3.037V6.658h3.084c2.976 0 4.936 1.912 4.936 4.437a4.845 4.845 0 01-4.983 4.975m29.833 4.13l2.15-5.584a24.473 24.473 0 001.287-4.168h.066a33.847 33.847 0 001.29 4.27l1.941 5.482h-6.734zM98.148.008l-13.535 33.8c-4.875-8.25-7.986-13.554-9.854-14.618v-.053c3.142-1.423 6.331-4.486 6.331-8.946C81.09 4.75 77.622.045 67.823.045H56.671v34.849h8.292V21.831h2.484c1.2.477 3.085 3.964 8.44 13.061h16.39l3.232-8.276h11.535l3.4 8.276h8.9L104.612.008h-6.467zM68 16.065h-3.034V6.653h3.085c2.976 0 4.929 1.912 4.929 4.437A4.838 4.838 0 0168 16.065m29.829 4.13l2.154-5.584a24.117 24.117 0 001.287-4.168h.066a35.726 35.726 0 001.282 4.27l1.949 5.482h-6.738zM350.042.043l1.942 6.349 14.719-.106-17.908 28.606h30.368v-6.508l-17.05.159 17.37-28.5h-29.444zm30.741 0l1.94 6.349 14.72-.106-17.91 28.606h30.37v-6.508l-17.05.159 17.38-28.5h-29.45zm31.94 34.849H421V.043h-8.28v34.849zm34.47-7l-9.22-9.041-8.69 8.379v7.666h35.73V27.2l-8.57-8.356zM429.283.047V22.69l8.68-8.412 9.23 9.071 9.25-9.03 8.57 8.367V.043h-35.73zm22.59 14.337l-4.65-4.524-4.65 4.524-2.36-2.291 7.01-6.78 6.97 6.8z" fill-rule="evenodd"/></svg>