<svg xmlns="http://www.w3.org/2000/svg" viewBox="0 0 241.25 111.06" width="100"><path d="M69.2 50.87V25.22h7.69l7.7 8.72 7.12-8.72h7.47v25.65h-8.55v-12.6l-6.21 7.13h-.18l-6.49-7.13v12.6zM102.77 38a13.13 13.13 0 013.87-9.69A14.25 14.25 0 01117 24.53c4.27 0 7.75 1.26 10.32 3.82a13 13 0 013.95 9.65 12.92 12.92 0 01-3.93 9.69c-2.57 2.57-6 3.82-10.32 3.82s-7.75-1.25-10.38-3.82a13.1 13.1 0 01-3.87-9.69zM117 43.57c3 0 5.13-2.11 5.13-5.53 0-3.25-2.22-5.53-5.13-5.53s-5.13 2.17-5.13 5.53c.02 3.19 2.18 5.53 5.13 5.53zM143.41 50.87h-8.55V25.22h8.55v13.39l9.12-13.39h8.55v25.65h-8.55v-13.4zm2.39-38.19c0 2.22.8 3.3 2.4 3.3 1.42 0 2.16-1.08 2.16-3.3h7.41c0 5.64-3.42 9.69-9.57 9.69-6.67 0-9.81-3.94-9.81-9.69zM24.11 48.19a6.79 6.79 0 01-3.3 2.56A26.42 26.42 0 0116 51.89a19.59 19.59 0 00-5 1.43c-3.88 1.77-6 5.87-6.5 12.37h.11c1.66-3.59 5.82-6 10.15-6 7.3 0 11.91 5 11.91 12.77A13.1 13.1 0 0123 81.82a12.55 12.55 0 01-9.46 3.82 12.42 12.42 0 01-9.92-4.28C1.2 78.51 0 74.64 0 69.68Q0 53 9.52 49a20.36 20.36 0 015-1.43c3.59-.63 5.58-1 7.12-3zM13.45 81.36a7.91 7.91 0 006-2.51 8.49 8.49 0 002.4-6.15c0-5.19-3-8.72-8.21-8.72a8.77 8.77 0 00-5.81 1.94 8.27 8.27 0 00-3 4.61c.02 6.56 3.55 10.83 8.62 10.83zM35.4 85.07h-4.56V59.42h4.56v19.09l14.82-19.09h4.56v25.65h-4.56V66zM62.93 84.67a10.11 10.11 0 01-4.45-2.51l2.34-3.42a13.49 13.49 0 007.58 2.79c3.93 0 6.72-1.71 6.72-4.21 0-2.11-1.88-3.31-5-3.31h-4.34V70.3h4c2.57 0 4.45-1.59 4.45-3.64 0-2.28-2.11-3.71-5.47-3.71a12.29 12.29 0 00-7.7 2.85l-1.76-3.53c2-2.11 6-3.42 10.14-3.42 6.16 0 9.63 2.62 9.63 6.89 0 3-1.48 5-4.5 6.05v.11a5.79 5.79 0 015.36 6c0 4.73-4.45 7.7-10.89 7.7a21.51 21.51 0 01-6.11-.93zM103.28 85.07V74.24H89v10.83h-4.53V59.42H89V70h14.25V59.42h4.56v25.65zM135.32 82.27a13.86 13.86 0 01-9.64 3.37c-4.16 0-7.46-1.2-10-3.65a13 13 0 01-3.68-9.75 13.48 13.48 0 013.53-9.57c2.34-2.57 5.59-3.82 9.69-3.82a11.7 11.7 0 018.49 3.3 11.09 11.09 0 013.42 8.44 15.87 15.87 0 01-.28 3.08h-19.77c.39 4.79 3.87 7.69 8.94 7.69 3.37 0 6-.91 7.87-2.68zM116.79 70h15.56c-.23-4.27-3-6.84-7.41-6.84-4.56-.04-7.64 2.76-8.15 6.84zM162.39 81.36c-2.11 2.74-5.81 4.28-9.86 4.28a13.83 13.83 0 01-10-3.65 13 13 0 01-3.76-9.75 13.32 13.32 0 013.71-9.52 12.39 12.39 0 019.29-3.87c4.5 0 7.86 1.14 10.09 3.36l-2.11 3.59a10.5 10.5 0 00-7.35-2.68 8.48 8.48 0 00-6.22 2.62 8.81 8.81 0 00-2.56 6.5 8.61 8.61 0 002.62 6.61 9.89 9.89 0 0014-.79z" fill="#562212"/><path fill="#ed5338" d="M215.59 93.18l-8.56-8.56-8.56 8.56 8.56 17.88 8.56-17.88z"/><path d="M207 35.43a5.95 5.95 0 105.95 6 5.95 5.95 0 00-5.95-6" fill="#c59368"/><path d="M207 8.72c-1.81.93-25.5 13.45-25.5 33.45 0 17.11 13.94 43.07 13.94 43.07L207 73.66l11.56 11.58s13.95-26 13.95-43.07c0-20-23.7-32.52-25.51-33.45m7.63 57.12L207 58.19l-7.63 7.65c-.39-1.06-5.51-14.9-5.51-23.93 0-12.18 12.22-19 13.14-19.51.92.5 13.14 7.33 13.14 19.51 0 9-5.12 22.87-5.51 23.93M223.810884 8.71536l8.718627-8.718626 8.718627 8.718626-8.718627 8.718627z" fill="#c59368"/></svg>