<svg xmlns="http://www.w3.org/2000/svg" width="162" height="52" fill="none"><g clip-path="url(#clip0)"><path d="M.082031 15.1069H17.4483v21.3722h-2.9634V17.5776H3.04544v18.9015H.082031V15.1069zM31.7438 14.8074c3.2776 0 5.7409.864 7.3621 2.235l-1.4641 1.9994c-1.1923-.864-3.0703-1.7566-5.9053-1.7566-5.2055 0-7.8405 3.7418-7.8405 8.5118s2.635 8.5119 7.8405 8.5119c2.835 0 4.713-.8929 5.9053-1.7567l1.4641 1.9994c-1.6282 1.3709-4.0845 2.235-7.3621 2.235-7.0337 0-11.0182-4.713-11.0182-10.9825s3.9774-10.9967 11.0182-10.9967zM55.8721 15.1074h3.8275l-9.6115 9.2544 9.7616 12.118h-3.6205l-8.1691-10.1614-3.0132 2.9063v7.2621h-2.9634V15.1074h2.9634v10.4184l10.8252-10.4184zM95.3247 25.7971c0-6.2767 3.9776-10.9824 11.0183-10.9824 7.033 0 11.018 4.7129 11.018 10.9824s-3.977 10.9824-11.018 10.9824c-7.0337 0-11.0183-4.7129-11.0183-10.9824zm18.8583 0c0-4.77-2.67-8.5117-7.84-8.5117-5.206 0-7.8406 3.7417-7.8406 8.5117 0 4.7699 2.6346 8.5118 7.8406 8.5118 5.17-.007 7.84-3.7419 7.84-8.5118zM131.835 32.2308l7.441-17.1234h3.756v21.3724h-2.963V20.5487l-6.948 15.9311h-2.564l-6.948-15.9311v15.9311h-2.963V15.1074h3.756l7.433 17.1234zM92.6472 36.4654v-2.4566h-2.6561V15.1074H76.1737c0 2.6064.0571 12.8605-3.6346 18.9014h-2.2066v2.4566h22.3147zM78.9799 17.5781h8.0478v16.4237h-11.211c2.7421-4.8271 3.1632-12.6034 3.1632-16.4237z" fill="#1A1A1A"/><path d="M161.9.079102h-12.561V12.6404H161.9V.079102z" fill="url(#paint0_linear)"/><path d="M159.863 7.97615c-.412-.33674-.875-.51357-1.381-.54722-.286-.01684-.328-.09261-.311-.42095.025-.39571.109-.77458.185-1.16185.076-.41252.185-.81666.27-1.22078.109-.55566.294-1.10288.353-1.67539.009-.05893.026-.11787.042-.1768.202-.73246.245-1.47334.084-2.222643-.176-.816653-.766-1.31338-1.473-1.288123-.286.008421-.362.092609-.379.412538-.008.193638-.059.345182-.185.479887-.168.18522-.337.362021-.48.580919-.539.799812-1.094 1.582792-1.65 2.365772-.497.70721-1.019 1.39757-1.44 2.18055-.235.44621-.505.884-.682 1.36389-.126.33675-.311.63984-.404 1.00186-.042.1768-.176.3115-.336.36203-.32.08418-.623.25257-.968.24416-.278-.00844-.514.14311-.741.28625-.32.19364-.379.90084 0 1.24602.362.32833.766.53043 1.178.73243.438.2189.783.1011.969-.3872.084-.21896.193-.40416.277-.62307.076-.1852.211-.30306.388-.36202.547-.16836 1.111-.21889 1.658-.32834.766-.14311 1.541-.07578 2.315-.11787h.16c.27.00844.539-.04209.809.05053.286.10102.361.30309.227.59775-.177.37886-.27.78302-.388 1.18712-.05.1768-.159.3283-.185.5304-.05.4125-.193.7998-.303 1.1955-.076.2778-.21.5388-.235.8335-.017.1768.033.2946.21.3283.446.0842.817-.1263 1.187-.362.034-.0252.067-.0758.084-.1179.076-.2104.135-.4209.202-.6314.144-.3957.177-.8419.405-1.1955.218-.3536.404-.7156.53-1.12818.101-.32834.152-.66509.269-.98502.177-.41255.076-.74089-.261-1.02715zm-2.77-2.75302c-.227.50514-.319 1.0692-.252 1.65855.017.1347.084.21891.143.31149.16.26941.101.4378-.185.4294-.699-.01684-1.381.25256-2.08.23572-.16-.0084-.32.09262-.48.1263-.118.02525-.252.0505-.337-.08421-.084-.1347 0-.25257.051-.37883.286-.70721.64-1.38076 1.044-2.00376.455-.71561.951-1.39757 1.465-2.05425.194-.24416.371-.49674.564-.7409.101-.12628.202-.27783.379-.19363.185.08419.118.28625.143.43779-.034.79139-.126 1.54069-.455 2.25633z" fill="#fff"/><path d="M12.3564 50.1238v-4.617h2.4614c1.1215 0 1.5075.67 1.5075 1.2526 0 .3204-.1675.7792-.5535.9613.4297.1966.67.6117.67 1.0705 0 .6409-.3714 1.3253-1.6167 1.3253h-2.4687v.0073zm.6482-2.6507h1.8205c.6918 0 .8593-.3787.8593-.7137s-.1675-.7137-.8593-.7137h-1.8205v1.4274zm1.8132.5389h-1.8205v1.573h1.8205c.721 0 .9759-.3204.9759-.7865 0-.4661-.2549-.7865-.9759-.7865zM21.0952 49.1044l.4005.4004c-.4442.4588-1.0705.7138-1.9152.7138-1.3983 0-2.2211-1.0194-2.2211-2.4031 0-1.3838.8228-2.4031 2.2211-2.4031 1.3035 0 2.221.8738 2.221 2.6723h-3.7576c.0218.9033.5971 1.5876 1.5366 1.5876.7209 0 1.1942-.2913 1.5147-.5679zm.0291-1.5585c-.0728-.903-.5899-1.5873-1.5366-1.5873s-1.4637.6917-1.5365 1.5873h3.0731zM26.9062 45.5068v4.617h-.6481v-4.0781h-2.3522v2.1482c0 2.1265-1.2307 1.9299-1.4127 1.9299v-.5388c.2039 0 .7719.0073.7719-1.3838v-2.687h3.6411v-.0074zM32.8486 47.8155c0 1.3907-.9249 2.4031-2.4177 2.4031-1.4929 0-2.4177-1.0124-2.4177-2.4031 0-1.3911.9248-2.4031 2.4177-2.4031 1.4928 0 2.4177 1.012 2.4177 2.4031zm-4.1509 0c0 1.0487.5899 1.8568 1.7332 1.8568 1.1507 0 1.733-.8155 1.733-1.8568 0-1.0414-.5896-1.8569-1.733-1.8569-1.1506 0-1.7332.8081-1.7332 1.8569zM38.0842 45.5068v4.617h-.648v-4.0781h-2.8328v4.0781h-.6483v-4.617h4.1291zM41.7039 49.2573l1.6023-3.7578h.728v4.617h-.6406v-3.328l-1.3764 3.328h-.6263l-1.3764-3.328v3.328h-.641v-4.617h.7284l1.602 3.7578zM48.8769 49.1044l.4004.4004c-.4441.4588-1.0704.7138-1.9153.7138-1.3981 0-2.2209-1.0194-2.2209-2.4031 0-1.3838.8228-2.4031 2.2209-2.4031 1.3037 0 2.2213.8738 2.2213 2.6723h-3.7578c.022.9033.5972 1.5876 1.5365 1.5876.7211 0 1.1872-.2913 1.5149-.5679zm.0217-1.5585c-.0727-.903-.5899-1.5873-1.5366-1.5873-.9466 0-1.4638.6917-1.5365 1.5873h3.0731zM54.1855 45.5068h.648v4.617h-.648v-2.1264h-2.8476v2.1264h-.648v-4.617h.648v1.9443h2.8476v-1.9443zM55.8457 45.5068h4.0635v.5389h-1.7041v4.0781h-.6483v-4.0781h-1.7041v-.5389h-.007zM5.10075 45.1709v4.3566h.69174v1.6826h-.69174v-1.1037H.773761v1.1037h-.69173v-1.6826h.598516c.425173-.6019.716263-1.506.873243-2.7131.07196-.533.1112-1.0808.11774-1.6435h3.42922zm-3.64507 4.3566h2.95333v-3.7777H2.3093c-.00654.2192-.02453.4677-.05397.7458-.02616.2748-.06868.5936-.12755.9567-.05887.3629-.14717.7309-.26491 1.1038-.11448.3729-.25021.6966-.40719.9714zM8.90324 49.6256c.59851 0 1.13816-.2027 1.61896-.6083l.4317.4267c-.4906.5071-1.17415.7605-2.05066.7605-.48732 0-.91249-.1113-1.27552-.3338-.35976-.2222-.63287-.5263-.81929-.9124-.18643-.3857-.27962-.8259-.27962-1.3195 0-.494.09319-.9338.27962-1.3199.18642-.3857.45953-.6902.81929-.9124.36303-.2225.7882-.3337 1.27552-.3337.72279 0 1.29846.2439 1.72686.7311.4317.4842.6476 1.1921.6476 2.1243H7.25976c.01309.4937.1668.9008.46115 1.2214.29763.3173.69174.476 1.18233.476zm-1.64348-2.2763h3.28694c-.0425-.5037-.206-.9127-.4906-1.2266-.28124-.3139-.66555-.471-1.15286-.471-.48732 0-.87324.1571-1.15778.471-.28127.3139-.44318.7229-.4857 1.2266z" fill="#969696"/></g><defs><linearGradient id="paint0_linear" x1="149.338" y1="6.35664" x2="161.901" y2="6.35664" gradientUnits="userSpaceOnUse"><stop stop-color="#EC3A39"/><stop offset="1" stop-color="#EC3A39"/></linearGradient><clipPath id="clip0"><path fill="#fff" d="M0 0h162v51.3509H0z"/></clipPath></defs></svg>