<svg xmlns="http://www.w3.org/2000/svg" xmlns:xlink="http://www.w3.org/1999/xlink" viewBox="0 0 138.26 132.7" width="100"><defs><linearGradient id="a" x1="90.11" y1="-3.43" x2="94.66" y2="45.66" gradientUnits="userSpaceOnUse"><stop offset="0" stop-color="#35aabb"/><stop offset=".33" stop-color="#33a8b9"/><stop offset=".5" stop-color="#2ea0b3"/><stop offset=".64" stop-color="#2592a8"/><stop offset=".68" stop-color="#218da4"/><stop offset=".72" stop-color="#1f88a2"/><stop offset=".76" stop-color="#177b9b"/><stop offset=".8" stop-color="#0c658f"/><stop offset=".83" stop-color="#015185"/></linearGradient><linearGradient id="b" x1="55.8" y1="38.05" x2="133.29" y2="38.05" gradientUnits="userSpaceOnUse"><stop offset="0" stop-color="#24c8d5"/><stop offset=".73" stop-color="#0c98c8"/></linearGradient><linearGradient id="d" x1="97.82" y1="88.41" x2="159.32" y2="62.91" gradientUnits="userSpaceOnUse"><stop offset="0" stop-color="#db1a21"/><stop offset=".35" stop-color="#dd1a23"/><stop offset=".54" stop-color="#e31b2b"/><stop offset=".68" stop-color="#ed1c38"/><stop offset=".71" stop-color="#e81c37"/><stop offset=".75" stop-color="#db1d32"/><stop offset=".79" stop-color="#c51d2b"/><stop offset=".83" stop-color="#aa1e23"/></linearGradient><linearGradient id="e" x1="127.09" y1="72.89" x2="85.09" y2="96.39" gradientUnits="userSpaceOnUse"><stop offset="0" stop-color="#8b0304"/><stop offset=".23" stop-color="#8d0405"/><stop offset=".35" stop-color="#950609"/><stop offset=".45" stop-color="#a30911"/><stop offset=".54" stop-color="#b60e1b"/><stop offset=".61" stop-color="#cf1428"/><stop offset=".68" stop-color="#ed1c38"/><stop offset=".71" stop-color="#e81c37"/><stop offset=".75" stop-color="#db1d32"/><stop offset=".79" stop-color="#c51d2b"/><stop offset=".83" stop-color="#aa1e23"/></linearGradient><linearGradient id="f" x1="812.31" y1="634.95" x2="816.86" y2="684.03" gradientTransform="matrix(-.82 -.58 .58 -.82 306.14 1109.3)" xlink:href="#a"/><linearGradient id="g" x1="778" y1="676.42" x2="855.49" y2="676.42" gradientTransform="matrix(-.82 -.58 .58 -.82 306.14 1109.3)" xlink:href="#b"/><linearGradient id="h" x1="863.26" y1="482.4" x2="867.82" y2="531.48" gradientTransform="rotate(-72.91 127.661373 836.982615)" xlink:href="#a"/><linearGradient id="i" x1="828.96" y1="523.87" x2="906.44" y2="523.87" gradientTransform="rotate(-72.91 127.661373 836.982615)" xlink:href="#b"/><linearGradient id="c" x1="100.42" y1="22.88" x2="89.93" y2="37.79" gradientUnits="userSpaceOnUse"><stop offset="0" stop-color="#fff"/><stop offset=".72" stop-color="#fff" stop-opacity=".28"/><stop offset="1" stop-color="#fff" stop-opacity="0"/></linearGradient><linearGradient id="j" x1="152.61" y1="56.41" x2="120.58" y2="76.01" xlink:href="#c"/><linearGradient id="k" x1="178.46" y1="329.27" x2="239.96" y2="303.77" gradientTransform="rotate(70.27 280.101027 134.610203)" xlink:href="#d"/><linearGradient id="l" x1="103.03" y1="81.8" x2="43.03" y2="137.3" gradientUnits="userSpaceOnUse"><stop offset="0" stop-color="#be141b"/><stop offset=".29" stop-color="#c0141c"/><stop offset=".44" stop-color="#c81621"/><stop offset=".56" stop-color="#d6182a"/><stop offset=".66" stop-color="#e91b35"/><stop offset=".68" stop-color="#ed1c38"/><stop offset=".75" stop-color="#ed1c33"/><stop offset=".82" stop-color="#ed1c26"/><stop offset=".83" stop-color="#ed1c25"/></linearGradient><linearGradient id="m" x1="233.12" y1="297.62" x2="201.09" y2="317.23" gradientTransform="rotate(70.27 280.101027 134.610203)" xlink:href="#c"/><linearGradient id="n" x1=".73" y1="95.07" x2="64.03" y2="95.07" xlink:href="#b"/><linearGradient id="o" x1="90.79" y1="14.17" x2="40.25" y2="46.2" xlink:href="#c"/></defs><g style="isolation:isolate"><path d="M44.17 72.93a9 9 0 019.28-9.15 8.5 8.5 0 017.38 3.72l-3.57 2.76a4.73 4.73 0 00-3.87-2c-2.46 0-4.19 2.08-4.19 4.7s1.73 4.7 4.19 4.7a4.83 4.83 0 004-2.14L61 78.1a8.85 8.85 0 01-7.79 4 8.94 8.94 0 01-9.04-9.17z"/><path d="M61.39 80.79l1.91-3.52a3.66 3.66 0 002 .61 2 2 0 001.53-.76l-6.88-13h5.43l4 8.27 3.77-8.27h5.3l-6.89 13.43C70 80.69 68.32 82 65.61 82a7.93 7.93 0 01-4.22-1.21z"/><path d="M78.35 64.13h15.76v17.59h-4.88V68.4h-6v13.32h-4.88z"/><path d="M68.71 0c-2.48-.68-13.8 43.5-13.8 43.5H134s-12.77-2.89-24.43-6.5c-12.09-3.77-23.15-8.37-28.71-13.5C73.1 16.3 71.2.7 68.71 0z" fill="url(#a)"/><path d="M54.91 43.5s2.34-10.91 20.36-10.91c6.22 0 13.76 2.44 22.78 4.14l36 6.77z" opacity=".72" fill="url(#b)"/><path d="M138.26 49.11c0-2.58-45.62-1.11-45.62-1.11l22.09 76s-.79-13.09-.56-25.3c.24-12.66 1.57-24.57 4.94-31.34 4.72-9.49 19.18-15.67 19.15-18.25z" fill="url(#d)"/><path d="M92.64 48s11.13-.79 16.16 16.51c1.74 6 1.5 13.89 2.38 23 1.68 17.34 3.55 36.43 3.55 36.43z" fill="url(#e)"/><path d="M28.26 131.62c1.63 2 36.37-27.56 36.37-27.56L0 58.43s8.78 9.74 16.21 19.43c7.7 10 14.09 20.19 15.67 27.58 2.2 10.34-5.25 24.19-3.62 26.18z" fill="url(#f)"/><path d="M64.63 104.06s-8.21 7.56-22.93-2.84c-5.08-3.58-9.83-9.93-16.22-16.52C13.36 72.19 0 58.43 0 58.43z" opacity=".72" fill="url(#g)"/><path d="M2 51.16c-1.39 2.18 37.51 26 37.51 26l23.2-75.63S56.19 12.9 49.29 23C42.14 33.42 34.49 42.65 28 46.45 18.81 51.76 3.34 49 2 51.16z" fill="url(#h)"/><path d="M39.46 77.14S29.72 71.7 35 54.47c1.85-5.94 6.4-12.47 10.68-20.55l17-32.39z" opacity=".72" fill="url(#i)"/><path d="M54.91 43.5H134s-12.77-2.89-24.43-6.5c-12.09-3.77-23.15-8.37-28.71-13.5C73.1 16.3 71.2.7 68.71 0S55.65 40.6 54.94 43.35z" opacity=".72" fill="url(#c)"/><path d="M92.8 48.36h-.16l22.09 76s-.79-13.09-.56-25.3c.24-12.66 1.57-24.57 4.94-31.34 4.72-9.46 19.18-15.64 19.15-18.22s-42.54-1.23-45.46-1.14z" opacity=".72" fill="url(#j)" style="mix-blend-mode:screen"/><path d="M113.21 129.45c2.42-.9-14.35-43.31-14.35-43.31l-64 46.44s12-5.17 23.62-9.07c12-4.05 23.66-6.82 31.16-5.93 10.45 1.25 21.15 12.77 23.57 11.87z" fill="url(#k)"/><path d="M98.86 86.14s4.5 10.21-10.09 20.78c-5 3.65-12.57 6.1-20.87 10l-33.09 15.66z" fill="url(#l)"/><path d="M98.19 86.41l-.06-.15-64 46.44s12.05-5.16 23.62-9.07c12-4 23.66-6.82 31.16-5.92 10.5 1.25 21.2 12.77 23.62 11.87S99.26 89.13 98.19 86.41z" opacity=".72" fill="url(#m)"/><path d="M64.63 104.06L0 58.43s8.78 9.74 16.21 19.43c7.7 10 14.09 20.19 15.67 27.58 2.2 10.34-5.25 24.19-3.62 26.18s34-25.57 36.24-27.45z" opacity=".72" fill="url(#n)"/><path d="M39.33 77.07l.13.07L62.71 1.53S56.19 12.9 49.29 23C42.14 33.42 34.49 42.65 28 46.45 18.81 51.76 3.34 49 2 51.16s34.91 24.42 37.33 25.91z" opacity=".72" fill="url(#o)"/></g></svg>