<svg xmlns="http://www.w3.org/2000/svg" viewBox="0 0 291.78 73.9" width="100"><defs><style>.cls-1{fill:#1a39ba}</style></defs><path class="cls-1" d="M65.35 36.49H60.4a23.11 23.11 0 11-6.77-16.34 23.06 23.06 0 016.77 16.34h9.91a33 33 0 10-9.67 23.34 33 33 0 009.67-23.34z"/><path class="cls-1" d="M72.28 0L56.01 16.27l1.61 1.62L73.89 1.62M16.27 56.01L0 72.28l1.62 1.62 16.27-16.28M0 1.62l16.27 16.27 1.62-1.62L1.62 0M56.01 57.62L72.28 73.9l1.61-1.62-16.27-16.27"/><path fill="#42b550" fill-rule="evenodd" d="M22.59 35.99l10.46 4.31 4.59 10.74 10.12-25.17-25.17 10.12z"/><path d="M137.83 9.51l.17-1.63h2.57v6.27h-3.89a10.84 10.84 0 001.15-4.64zm-4 7.83h1.53v-1.66h6.51v1.66h1.53v-3.19h-1.26v-7.8h-5.74l-.1 1.87c-.16 3.47-1.05 5.45-1.44 5.93h-1zm-4.27-1.66h1.62V6.35h-1.58v3.81h-4.27V6.35h-1.63v9.33h1.63v-4h4.27zM112.79 11a3.13 3.13 0 116.21 0 3 3 0 01-3.13 3.27 3.15 3.15 0 01-3.08-3.27zm-1.73 0a4.62 4.62 0 004.85 4.8 4.69 4.69 0 004.86-4.8 4.63 4.63 0 00-4.86-4.81 4.68 4.68 0 00-4.85 4.81zm-11-.14c0-1.26.87-2.14 2.57-2.16V13c-1.63 0-2.54-.72-2.54-2.12zm6.78 0c0 1.43-.88 2.15-2.57 2.16v-4.3c1.73.03 2.6.91 2.6 2.16zm-4.21 4.9h1.64v-1.22c2.54 0 4.3-1.33 4.3-3.66s-1.76-3.62-4.3-3.66v-1h-1.64v1c-2.56 0-4.3 1.33-4.3 3.66s1.73 3.66 4.3 3.66zM188.29 33.05l4.88-6.62v6.62h1.64v-9.33h-1.44l-4.88 6.64v-6.64h-1.64v9.33zm-11.6 0h1.64v-4.81l3.81 4.81h2.08l-4.08-5 3.86-4.33h-2l-3.68 4.43v-4.43h-1.64zm-11.44-4.86l-3.65 4.86h1.88l3.52-4.84v4.84h1.63v-4.84l3.52 4.84h1.89l-3.65-4.88 3.5-4.45H172l-3.37 4.45v-4.45H167v4.45l-3.38-4.45h-1.88zm-8.67-3c1.12 0 1.72.48 1.72 1.45s-.76 1.51-1.73 1.51a11.28 11.28 0 01-1.16-.07v-2.82zm-1.17 7.82v-3.33h1.21a3.08 3.08 0 003.41-3c0-1.54-.87-3-3.61-3h-2.65v9.33zm-10.28 0h5.53v-1.49h-3.89v-2.41h3.36v-1.54h-3.36v-2.31h3.76v-1.54h-5.4zm-8.34-6.17l.14-1.62h2.57v6.26h-3.88a11.16 11.16 0 001.17-4.6zm-4 7.83h1.53v-1.62h6.51v1.66h1.54v-3.19h-1.27v-7.8h-5.78l-.09 1.87c-.16 3.48-1.06 5.45-1.44 5.93h-1zM125 26.88l.15-1.62h2.57v6.26h-3.89a11 11 0 001.17-4.64zm-4 7.83h1.53v-1.66h6.52v1.66h1.53v-3.19h-1.27v-7.8h-5.71l-.09 1.87c-.16 3.48-1.06 5.45-1.44 5.93h-1zm-9.81-6.32a3.13 3.13 0 116.25 0 3.05 3.05 0 01-3.13 3.27 3.15 3.15 0 01-3.05-3.27zm-1.73 0a4.63 4.63 0 004.85 4.81 4.7 4.7 0 004.86-4.81 4.63 4.63 0 00-4.86-4.81 4.68 4.68 0 00-4.78 4.81zM105 33.05h1.64v-9.33h-7.46v9.33h1.64v-7.79H105zM287.08 43.19l1.36 3.32h-2.73zm-4.62 7.23h1.65l1-2.38h4l1 2.38h1.74l-3.94-9.35h-1.51zm-5.4-7.83c.88 0 1.46.4 1.46 1.16a1.22 1.22 0 01-1.38 1.25H276v-2.37c.32-.03.68-.04 1.06-.04zm.13 3.82c1 0 1.63.4 1.63 1.19s-.6 1.34-1.71 1.34c-.47 0-.85 0-1.08-.06v-2.47zm-2.8 4c.55 0 1.75.07 2.6.07 2 0 3.46-.88 3.46-2.8a2.08 2.08 0 00-1.63-2.17 2.2 2.2 0 001.33-2.12c0-1.29-.84-2.3-3.07-2.3-.93 0-2.17 0-2.69.06zm-10.31-7.78h3v7.79h1.64v-7.79h3V41.1h-7.68zm-2.69 5.66a3.64 3.64 0 01-2.21.75 3.1 3.1 0 01-3.18-3.28 3 3 0 013-3.28 3.55 3.55 0 012.11.63l.73-1.21A4.22 4.22 0 00259 41a4.52 4.52 0 00-4.77 4.81 4.56 4.56 0 004.77 4.76 4.33 4.33 0 003-1zm-14.23-7.19h-1.63v9.32h2.35c2.48 0 3.87-1.24 3.87-3.21s-1.11-3-3.52-3a9.34 9.34 0 00-1.07.06zm.94 4.66c1.14 0 1.91.47 1.91 1.52s-.74 1.64-1.94 1.64h-.91v-3.09c.38-.04.7-.07.94-.07zm-7.73 4.66H242V41.1h-5.87L236 43c-.42 5.62-1.36 5.93-2.08 5.84v1.62c1.84.27 3-.61 3.59-6l.19-1.76h2.72zm-14.51 0h5.53v-1.53h-3.89v-2.41h3.36V45h-3.36v-2.37h3.76V41.1h-5.4zm-10.32-7.79h3v7.79h1.64v-7.79h3V41.1h-7.69zm-5.22.56l1.36 3.32H209zm-4.62 7.23h1.65l1-2.38h4l1 2.38H215l-3.94-9.35h-1.44zm-12 0h1.64v-6.7l3 4.1h.24l3-4.14v6.74h1.62V41.1h-1.54l-3 4.35-3.18-4.35h-1.66zm-10.06 0l4.89-6.62v6.62h1.64V41.1h-1.44l-4.89 6.63V41.1h-1.64v9.32zm-6.59 0h1.62V41.1H177v3.81h-4.26V41.1h-1.64v9.32h1.64v-4H177zm-16 0l4.89-6.62v6.62h1.64V41.1h-1.44l-4.89 6.63V41.1h-1.64v9.32zm-7.76-7.82c1.12 0 1.72.48 1.72 1.45s-.76 1.51-1.73 1.51c-.37 0-.77 0-1.16-.07v-2.86zm-1.17 7.82v-3.37h1.21c2.23 0 3.42-1.44 3.42-3s-.87-3-3.61-3h-2.66v9.32zm-6.8 0H147V41.1h-7.44v9.32h1.64v-7.79h4.16zm-14.14-6.17l.15-1.62h2.57v6.26H130a11.05 11.05 0 001.18-4.64zm-4 7.84h1.53v-1.67h6.51v1.67h1.54v-3.2h-1.27V41.1h-5.78l-.06 1.9c-.16 3.48-1.06 5.45-1.44 5.93h-1zm-7.94-1.67h5.53v-1.53h-3.89v-2.41h3.35V45h-3.35v-2.37h3.75V41.1h-5.39zM113 42.6c1.11 0 1.71.48 1.71 1.45s-.76 1.51-1.73 1.51c-.37 0-.77 0-1.16-.07v-2.86zm-1.18 7.82v-3.37h1.22a3.08 3.08 0 003.41-3c0-1.53-.87-3-3.61-3h-2.66v9.32zm-6.8 0h1.64V41.1h-7.48v9.32h1.64v-7.79H105zM133.31 58.47h-1.64v9.32h2.32c2.39 0 3.77-1.24 3.77-3.21s-1.1-3-3.41-3a7.28 7.28 0 00-1 .07zm.91 4.66c1.15 0 1.81.52 1.81 1.52s-.64 1.64-1.84 1.64h-.88v-3c.38-.13.69-.16.91-.16zm4.78 4.66h1.63v-9.32H139zM125.36 60c1.12 0 1.72.48 1.72 1.46s-.76 1.5-1.73 1.5a11.41 11.41 0 01-1.16-.06V60zm-1.17 7.82v-3.4h1.21a3.08 3.08 0 003.41-3c0-1.53-.86-3-3.61-3h-2.65v9.32zm-9.56 0h1.64V60h3.62v-1.53h-5.26zm-10.56-4.66a3 3 0 013-3.28 3 3 0 012.93 3.25c0 1.84-1 3.28-2.94 3.28a3.08 3.08 0 01-2.99-3.28zm-4.89 4.66h1.64v-4h1.56a4.49 4.49 0 004.62 4.12 4.59 4.59 0 004.73-4.81 4.54 4.54 0 00-4.73-4.81 4.47 4.47 0 00-4.55 4h-1.59v-3.85h-1.68z"/></svg>