<svg xmlns="http://www.w3.org/2000/svg" viewBox="0 0 183.51 680.11"><defs><clipPath id="clip-path"><circle class="cls-1" cx="128.68" cy="155.46" r="22.14"/></clipPath><clipPath id="clip-path-2"><circle class="cls-1" cx="54.7" cy="155.46" r="22.14"/></clipPath><style>.cls-1,.cls-12,.cls-13,.cls-17,.cls-18,.cls-9{fill:none}.cls-2{fill:#f4f4f5}.cls-3{fill:#fccfbf}.cls-4{fill:#fbc0af}.cls-5{fill:#fff}.cls-7{fill:#333}.cls-9{stroke:#333;stroke-miterlimit:10;stroke-width:1.13px}.cls-10{fill:#eaeaeb}.cls-11{fill:#f9f9fa}.cls-12,.cls-17{stroke:#37c4f0}.cls-12,.cls-17,.cls-18{stroke-linecap:round}.cls-12,.cls-13,.cls-17,.cls-18{stroke-linejoin:round}.cls-12,.cls-13{stroke-width:8.5px}.cls-13{stroke:#3e9cd6}.cls-17,.cls-18{stroke-width:4.25px}.cls-18{stroke:#268bd4}.cls-19{fill:#268bd4}</style></defs><g id="Layer_2" data-name="Layer 2"><g id="OBJECTS"><path class="cls-2" d="M20.13 170.92h145.98v509.19H20.13zM60 87.58c-1-1.94-13.11-43.2-1.95-67.95S21.69-14.35 23.63 40 54.7 92.43 54.7 92.43z"/><path class="cls-3" d="M43.05 75.33C42.67 74 38 44.92 42.3 27.5S28.24 3.58 29 41.85s12 36.9 12 36.9z"/><path class="cls-2" d="M120.17 87.58c1-1.94 13.1-43.2 1.94-67.95s36.4-34 34.46 20.38-31.07 52.42-31.07 52.42z"/><path class="cls-3" d="M137.15 75.33c.38-1.36 5.06-30.41.75-47.83S152 3.58 151.21 41.85s-12 36.9-12 36.9z"/><circle class="cls-2" cx="163.54" cy="321.44" r="17.22" transform="rotate(-45 163.543932 321.437885)"/><circle class="cls-2" cx="161.63" cy="293.46" r="18.47" transform="rotate(-45 161.631062 293.450222)"/><circle class="cls-2" cx="161.66" cy="262.53" r="18.58"/><circle class="cls-2" cx="162.61" cy="235.63" r="18.53" transform="rotate(-45 162.612648 235.633636)"/><circle class="cls-2" cx="161.86" cy="205.63" r="18.13" transform="rotate(-9.22 161.796066 205.587057)"/><circle class="cls-2" cx="162.6" cy="177.39" r="19.2" transform="rotate(-45 162.597335 177.389979)"/><circle class="cls-2" cx="164.54" cy="149.89" r="17.51"/><circle class="cls-2" cx="162.6" cy="122.05" r="18.7" transform="rotate(-13.28 162.622325 122.06113)"/><circle class="cls-2" cx="145.75" cy="97.63" r="17.61"/><circle class="cls-2" cx="120.38" cy="83.66" r="19.19" transform="rotate(-12.76 120.40366 83.685925)"/><circle class="cls-2" cx="20.56" cy="320.64" r="18.86" transform="rotate(-43.02 20.556938 320.639476)"/><circle class="cls-2" cx="20.48" cy="292.3" r="17.81"/><circle class="cls-2" cx="20.63" cy="264.08" r="17.22" transform="rotate(-45 20.636397 264.082124)"/><circle class="cls-2" cx="21.99" cy="235.29" r="18.1" transform="rotate(-45 21.99931 235.287588)"/><circle class="cls-2" cx="20.12" cy="206.94" r="18.93" transform="rotate(-80.84 20.115979 206.932554)"/><circle class="cls-2" cx="163.54" cy="461.12" r="17.22" transform="rotate(-45 163.54167 461.118822)"/><circle class="cls-2" cx="161.63" cy="433.13" r="18.47" transform="rotate(-13.28 161.662707 433.21142)"/><circle class="cls-2" cx="161.66" cy="402.2" r="18.58"/><circle class="cls-2" cx="162.61" cy="375.31" r="18.53" transform="rotate(-13.28 162.648164 375.38352)"/><circle class="cls-2" cx="161.86" cy="345.31" r="18.13" transform="rotate(-9.22 161.834654 345.205677)"/><circle class="cls-2" cx="20.56" cy="460.32" r="18.86" transform="rotate(-43.02 20.563354 460.311475)"/><circle class="cls-2" cx="20.48" cy="431.98" r="17.81" transform="rotate(-76.82 20.48392 431.982402)"/><circle class="cls-2" cx="20.63" cy="403.75" r="17.22" transform="rotate(-45 20.639136 403.75099)"/><circle class="cls-2" cx="21.99" cy="374.96" r="18.1" transform="rotate(-76.61 22.002654 374.9704)"/><circle class="cls-2" cx="20.12" cy="346.62" r="18.93" transform="rotate(-22.23 20.111461 346.592618)"/><circle class="cls-2" cx="21" cy="177.4" r="17.99" transform="rotate(-22.24 21.00681 177.424206)"/><circle class="cls-2" cx="20.01" cy="150.47" r="17.57"/><circle class="cls-2" cx="21.31" cy="121.26" r="17.59"/><circle class="cls-2" cx="38.8" cy="96.11" r="17.67"/><circle class="cls-2" cx="65.96" cy="82.71" r="18.75"/><circle class="cls-2" cx="93.51" cy="77.15" r="17.08" transform="rotate(-76.62 93.501951 77.148896)"/><ellipse class="cls-2" cx="91.2" cy="151.78" rx="67.08" ry="74.81"/><ellipse class="cls-3" cx="114.86" cy="111.15" rx="15.74" ry="13.99"/><ellipse class="cls-3" cx="70.2" cy="110.45" rx="15.39" ry="13.67"/><ellipse class="cls-3" cx="92.81" cy="106.41" rx="14.01" ry="12.45"/><ellipse class="cls-3" cx="90.74" cy="213.73" rx="14.01" ry="12.45"/><ellipse class="cls-3" cx="90.69" cy="159.39" rx="69.54" ry="61.77"/><ellipse class="cls-2" cx="162.38" cy="158.31" rx="10.1" ry="8.97"/><ellipse class="cls-2" cx="162.02" cy="145.53" rx="10.1" ry="8.97"/><ellipse class="cls-2" cx="152.09" cy="122.11" rx="10.1" ry="8.97"/><ellipse class="cls-2" cx="160.48" cy="134.15" rx="10.79" ry="9.58"/><ellipse class="cls-2" cx="144.03" cy="112.96" rx="10.15" ry="9.02"/><ellipse class="cls-2" cx="134.81" cy="104.44" rx="10.15" ry="9.02"/><ellipse class="cls-2" cx="21.22" cy="158.8" rx="10.13" ry="9"/><ellipse class="cls-2" cx="17.32" cy="171.58" rx="10.13" ry="9"/><ellipse class="cls-2" cx="22.49" cy="133.47" rx="10.15" ry="9.01"/><ellipse class="cls-2" cx="20.01" cy="144.82" rx="10.15" ry="9.01"/><ellipse class="cls-2" cx="39.57" cy="111.65" rx="10.19" ry="9.05"/><ellipse class="cls-2" cx="50.58" cy="101.71" rx="10.19" ry="9.05"/><ellipse class="cls-2" cx="29.64" cy="120.87" rx="10.19" ry="9.05"/><ellipse class="cls-2" cx="23.06" cy="183.98" rx="10.79" ry="9.58"/><ellipse class="cls-2" cx="27.68" cy="195.69" rx="10.79" ry="9.58"/><ellipse class="cls-2" cx="39.51" cy="205.16" rx="10.15" ry="9.02"/><ellipse class="cls-2" cx="64.3" cy="217.28" rx="11.06" ry="9.83"/><ellipse class="cls-2" cx="49.04" cy="213.02" rx="11.06" ry="9.83"/><ellipse class="cls-2" cx="161.05" cy="184.66" rx="10.15" ry="9.01"/><ellipse class="cls-2" cx="143.97" cy="206.48" rx="10.19" ry="9.05"/><ellipse class="cls-2" cx="153.91" cy="196.19" rx="10.19" ry="9.05"/><ellipse class="cls-2" cx="117.45" cy="218.11" rx="10.81" ry="9.61"/><ellipse class="cls-2" cx="162.87" cy="171.62" rx="10.81" ry="9.61"/><ellipse class="cls-2" cx="133.42" cy="217.04" rx="10.81" ry="9.61"/><ellipse class="cls-4" cx="67.8" cy="104.54" rx="16.62" ry="19.19"/><ellipse class="cls-4" cx="114.93" cy="105.49" rx="16.24" ry="18.75"/><ellipse class="cls-4" cx="91.07" cy="111.04" rx="14.79" ry="17.08"/><path class="cls-4" d="M63.44 194.58c0 11.9 12.65 33.47 28.25 33.47s28.25-21.57 28.25-33.47S107.3 173 91.69 173s-28.25 9.68-28.25 21.58z"/><circle class="cls-5" cx="128.68" cy="155.46" r="22.14"/><g clip-path="url(#clip-path)"><circle class="cls-7" cx="114.47" cy="155.43" r="23.86" transform="rotate(-42.15 114.4924 155.43568)"/></g><circle class="cls-5" cx="54.7" cy="155.46" r="22.14"/><g clip-path="url(#clip-path-2)"><circle class="cls-7" cx="40.49" cy="155.43" r="23.86" transform="rotate(-40.57 40.50459 155.443513)"/></g><circle class="cls-2" cx="64.18" cy="99.14" r="19.19" transform="rotate(-45 64.182887 99.134578)"/><circle class="cls-2" cx="118.61" cy="100.09" r="18.75" transform="rotate(-45 118.600345 100.094128)"/><circle class="cls-2" cx="91.06" cy="105.65" r="17.08" transform="rotate(-76.82 91.04599 105.639191)"/><path class="cls-9" d="M104.8 180.63c3.47 8.22-12.11 12-12.11 12s-17.36-4.67-13.25-13.08M92.69 192.58l-.76 18.71M107.73 207.13c-2.27 9.84-12.77 11-15.8 4.16-2.37 6.71-15.52 5.71-16.28-4.16"/><path class="cls-10" d="M139.09 286.56a12.28 12.28 0 0014.51-17.47 14.76 14.76 0 11-22.89 8.11 12.26 12.26 0 008.38 9.36zM76 293a12.27 12.27 0 0010.3-20.24 14.75 14.75 0 11-20.54 12.95A12.27 12.27 0 0076 293zM130 261a10.69 10.69 0 004.39-19.3 12.86 12.86 0 11-14.57 15.3 10.69 10.69 0 0010.18 4zM114 100.87a10.7 10.7 0 004.39-19.3A12.86 12.86 0 11103.8 96.9a10.71 10.71 0 0010.2 3.97zM36.39 260.05A12.55 12.55 0 0057 249.3a15.08 15.08 0 11-24.79-1.38 12.57 12.57 0 004.18 12.13zM131.76 332a11.68 11.68 0 0018-12 14.06 14.06 0 11-23.1 1.16 11.68 11.68 0 005.1 10.84zM76.66 359.25a12.07 12.07 0 005.25-21.71 14.51 14.51 0 11-16.7 17.08 12.05 12.05 0 0011.45 4.63zM46.63 330.91a11.5 11.5 0 00-16.08-14 13.83 13.83 0 117.14 21.62 11.52 11.52 0 008.94-7.62zM133.7 390.07a11.91 11.91 0 0021.79-3.24 14.32 14.32 0 11-21.79-8.95 11.89 11.89 0 000 12.19zM73.76 404.4A11.58 11.58 0 0095 401.29a13.93 13.93 0 11-21.19-8.75 11.57 11.57 0 00-.05 11.86zM49.47 96.9a11.59 11.59 0 0021.21-3.12A13.93 13.93 0 1149.48 85a11.61 11.61 0 00-.01 11.9zM34.61 391.19A11 11 0 0044.16 379a10.86 10.86 0 00-4.16-7.37 13.18 13.18 0 11-15.63 15 11 11 0 0010.24 4.56zM130.07 443.19a12.42 12.42 0 00-2.55-22.84 14.93 14.93 0 11-10.15 22.38 12.4 12.4 0 0012.7.46zM45.51 436.61a11.56 11.56 0 001-21.37 13.9 13.9 0 11-12.57 19.11 11.58 11.58 0 0011.57 2.26z"/><path class="cls-11" d="M91.15 377.54A10 10 0 0089.4 396a12 12 0 1111.68-16 10 10 0 00-9.93-2.46zM156.42 370.62a9.62 9.62 0 00-15.37 9 11.56 11.56 0 1119 .17 9.62 9.62 0 00-3.63-9.17zM31.17 424.33a9.62 9.62 0 00-3.23 17.51 11.57 11.57 0 1112.55-14.31 9.61 9.61 0 00-9.32-3.2zM119.77 423.63a10.87 10.87 0 00-17.77 9.45 13.08 13.08 0 1121.5 1 10.86 10.86 0 00-3.73-10.45zM26.69 348.78a9.94 9.94 0 007.07 17 12 12 0 112.8-19.47 9.94 9.94 0 00-9.87 2.47zM78.33 325.38A10.69 10.69 0 0081.27 345a12.86 12.86 0 118-19.59 10.67 10.67 0 00-10.94-.03zM110.68 354.55a9.44 9.44 0 0015.26 8.52 11.36 11.36 0 11-9.36-16.18 9.45 9.45 0 00-5.9 7.66zM159.35 231.45a10.08 10.08 0 00-18.2-4.13 12.12 12.12 0 1114.46 13.75 10.09 10.09 0 003.74-9.62zM49.68 297.07a10.32 10.32 0 00-12.56-14.39 12.41 12.41 0 113.67 20.1 10.33 10.33 0 008.89-5.71zM92.19 91.7a10.32 10.32 0 00-12.56-14.39A12.41 12.41 0 1183.3 97.4a10.31 10.31 0 008.89-5.7zM122.87 298.55a10.36 10.36 0 003.55 18.84 12.46 12.46 0 117-19.25 10.34 10.34 0 00-10.55.41zM35.09 222.06A10 10 0 0030.72 240a12 12 0 1113.81-14.06 10 10 0 00-9.44-3.88zM102.87 252.23a10.52 10.52 0 00-4.48 19 12.66 12.66 0 1114.49-15 10.52 10.52 0 00-10.01-4z"/><circle class="cls-2" cx="163.54" cy="540.97" r="17.22" transform="rotate(-45 163.545898 540.967071)"/><circle class="cls-2" cx="161.63" cy="512.99" r="18.47" transform="rotate(-45 161.628028 512.991479)"/><circle class="cls-2" cx="161.66" cy="482.06" r="18.58"/><circle class="cls-2" cx="20.56" cy="540.18" r="18.86" transform="rotate(-43.02 20.556797 540.176552)"/><circle class="cls-2" cx="20.48" cy="511.83" r="17.81"/><circle class="cls-2" cx="20.63" cy="483.61" r="17.22" transform="rotate(-45 20.638363 483.61131)"/><circle class="cls-2" cx="161.63" cy="652.66" r="18.47" transform="rotate(-13.28 161.654997 652.791714)"/><circle class="cls-2" cx="161.66" cy="621.74" r="18.58"/><circle class="cls-2" cx="162.61" cy="594.84" r="18.53" transform="rotate(-13.28 162.640453 594.963814)"/><circle class="cls-2" cx="161.86" cy="564.84" r="18.13" transform="rotate(-9.22 161.798136 564.705523)"/><circle class="cls-2" cx="20.48" cy="651.51" r="17.81" transform="rotate(-76.82 20.47956 651.511757)"/><circle class="cls-2" cx="20.63" cy="623.29" r="17.22" transform="rotate(-45 20.636102 623.292247)"/><circle class="cls-2" cx="21.99" cy="594.5" r="18.1" transform="rotate(-76.61 22.004118 594.509404)"/><circle class="cls-2" cx="20.12" cy="566.15" r="18.93" transform="rotate(-22.23 20.12077 566.114399)"/><path class="cls-10" d="M139.09 506.1a12.28 12.28 0 0014.51-17.48 14.76 14.76 0 11-22.89 8.12 12.29 12.29 0 008.38 9.36zM76 512.49a12.27 12.27 0 0010.3-20.24 14.75 14.75 0 11-20.54 13A12.28 12.28 0 0076 512.49zM130 480.51a10.69 10.69 0 004.39-19.3 12.86 12.86 0 11-14.59 15.33 10.68 10.68 0 0010.2 3.97zM36.39 479.58A12.55 12.55 0 0057 468.84a15.08 15.08 0 11-24.79-1.39 12.57 12.57 0 004.18 12.13zM131.76 551.57a11.68 11.68 0 0018-12 14.05 14.05 0 11-23.1 1.17 11.68 11.68 0 005.1 10.83zM76.66 578.79a12.07 12.07 0 005.25-21.72 14.51 14.51 0 11-16.7 17.08 12.08 12.08 0 0011.45 4.64zM46.63 550.44a11.5 11.5 0 00-16.08-14 13.83 13.83 0 117.14 21.62 11.5 11.5 0 008.94-7.62zM133.7 609.6a11.9 11.9 0 0021.79-3.23 14.31 14.31 0 11-21.79-9 11.89 11.89 0 000 12.23zM73.76 623.94A11.59 11.59 0 0095 620.82a13.93 13.93 0 11-21.19-8.74 11.57 11.57 0 00-.05 11.86zM34.61 610.72A11 11 0 0040 591.16a13.18 13.18 0 11-15.63 15 11 11 0 0010.24 4.56zM130.07 662.72a12.42 12.42 0 00-2.55-22.84 14.94 14.94 0 11-10.15 22.39 12.42 12.42 0 0012.7.45zM45.51 656.14a11.56 11.56 0 001-21.37 13.9 13.9 0 11-12.57 19.11 11.58 11.58 0 0011.57 2.26z"/><path class="cls-11" d="M91.15 597.08a10 10 0 00-6.66 12.46 9.88 9.88 0 004.91 5.94 12 12 0 1111.68-16 10 10 0 00-9.93-2.4zM156.42 590.16a9.62 9.62 0 00-15.37 9 11.56 11.56 0 1119 .17 9.6 9.6 0 00-3.63-9.17zM31.17 643.86a9.62 9.62 0 00-3.23 17.51 11.57 11.57 0 1112.55-14.31 9.63 9.63 0 00-9.32-3.2zM119.77 643.16a10.88 10.88 0 00-17.77 9.45 13.08 13.08 0 1121.5 1 10.87 10.87 0 00-3.73-10.45zM26.69 568.31a9.94 9.94 0 007.07 17 12 12 0 112.8-19.47 10 10 0 00-9.87 2.47zM78.33 544.91a10.69 10.69 0 002.94 19.57 12.86 12.86 0 118-19.59 10.69 10.69 0 00-10.94.02zM110.68 574.08a9.44 9.44 0 0015.26 8.52 11.36 11.36 0 11-9.36-16.17 9.42 9.42 0 00-5.9 7.65zM49.68 516.6a10.33 10.33 0 00-12.56-14.39 12.41 12.41 0 113.67 20.1 10.33 10.33 0 008.89-5.71zM122.87 518.08a10.36 10.36 0 003.55 18.84 12.46 12.46 0 117-19.25 10.36 10.36 0 00-10.55.41zM102.87 471.76a10.53 10.53 0 00-4.48 19 12.66 12.66 0 1114.49-15 10.53 10.53 0 00-10.01-4z"/><path class="cls-2" d="M183.26 680.11a17.2 17.2 0 00-34.3 0zM39.41 680.11a18.85 18.85 0 10-37.7 0z"/><path class="cls-12" d="M179.26 471.81s-57.4 33.9-93 40.41c-49.42-20.54-82-39.86-82-39.86"/><path class="cls-12" d="M96.45 548c0-1.65-6.06-31.24-10.21-35.77s-17.95 22-14.08 35.77"/><path class="cls-13" d="M179.26 471.81s-1.89 1.11-5.2 3"/><path d="M163.49 480.61c-19.59 10.51-53.33 27.24-77.25 31.61a777.42 777.42 0 01-71.5-34" stroke-dasharray="12.07 12.07" stroke="#3e9cd6" stroke-width="8.5" stroke-linejoin="round" fill="none"/><path class="cls-13" d="M9.46 475.33c-3.4-1.9-5.21-3-5.21-3M96.45 548c0-.42-.4-2.69-1.06-5.9"/><path d="M92.35 529c-1.93-7.46-4.22-14.72-6.11-16.79-3.06-3.35-11.41 10.26-14 23.16" stroke-dasharray="13.43 13.43" stroke="#3e9cd6" stroke-width="8.5" stroke-linejoin="round" fill="none"/><path class="cls-13" d="M71.49 542.05a20.46 20.46 0 00.67 5.94"/><path d="M79.34 511.7a5.93 5.93 0 105.93-5.94 5.93 5.93 0 00-5.93 5.94z" fill="#37c4f0"/><path class="cls-17" d="M111.62 572.33c-7.44-22.87-11.27-26.13-14.7-25.77s2.66 29.11 2.66 29.11"/><path class="cls-18" d="M104.77 575c-2.69-23.92-6-27.9-9.7-28.26s-3.77 29-3.77 29"/><path class="cls-19" d="M90.19 549.63c1 4.39 4.26 3.06 8.32 2.14s7.39-1.07 6.4-5.46-5.09-7.21-9.16-6.29-6.55 5.22-5.56 9.61z"/><path class="cls-17" d="M81.85 575.6c-3.47-23.79-6.7-27.65-10.14-27.88s-2.29 29.14-2.29 29.14"/><path class="cls-18" d="M74.65 577.08c1.39-24-1.21-28.51-4.79-29.48s-8.62 28-8.62 28"/><path class="cls-19" d="M64.56 549.61c.24 4.5 3.68 3.74 7.84 3.52s7.47.18 7.23-4.31-3.8-8-8-7.74-7.31 4.04-7.07 8.53z"/></g></g></svg>