<svg xmlns="http://www.w3.org/2000/svg" viewBox="0 0 215.43 172.9" fill="#0C4A6E"><path d="M48.09 53.24h-5.13V31.27H32.74v21.97h-5.13V27.4h20.48v25.84zM63.48 42.18q0-3.83-3.22-3.83t-3.67 4.17zm4.36 3.14l-11.22.46q.38 4.17 4.82 4.17a11.67 11.67 0 002.68-.31A8.37 8.37 0 0066 49l.61-.34v3.94a12.92 12.92 0 01-5.28.92Q52 53.54 52 44.2q0-4.71 2.26-7a7.78 7.78 0 015.86-2.33q7.81 0 7.81 8.35l-.08 2.14zM79 38.65a5.35 5.35 0 00-1.55.25 8.45 8.45 0 00-1.28.48l-.42.23v9.65a7.1 7.1 0 003.25.65q4.17 0 4.17-5.7 0-5.55-4.17-5.55zm6.41 12.59a8.26 8.26 0 01-6.14 2.3 9.38 9.38 0 01-1.8-.17 6.32 6.32 0 01-1.3-.36l-.42-.19V61h-4.54V40.15l-.69-4.59 4.4-.77.46 1.91.61-.52a7.51 7.51 0 019.57 1q2.14 2.35 2.14 7t-2.28 7zM101.13 46.77a1.3 1.3 0 00-.27-.5l-.34-.36a1 1 0 00-.46-.25l-.5-.13a2.58 2.58 0 00-.5-.08h-3.31v4.33H98q3.18 0 3.18-2.3a2.3 2.3 0 00-.1-.69zm-1-7.69a2.47 2.47 0 00-1.68-.54h-2.7v4h3.52a2.53 2.53 0 001.45-2 1.83 1.83 0 00-.61-1.45zm3.54 12.61a11.23 11.23 0 01-6.37 1.55h-6.14V35.13h6.93q6.89 0 6.89 4.75a4.37 4.37 0 01-2.11 3.45 4.72 4.72 0 012.18 1.45 3.76 3.76 0 01.88 2.53 5 5 0 01-2.28 4.38zM117.92 45.28l-1.38.23a9.1 9.1 0 00-3.22 1 1.92 1.92 0 00-.88 1.72q0 1.57 2 1.57a5.89 5.89 0 001.63-.25 8.14 8.14 0 001.32-.48l.5-.23v-3.56zm5.17 7.54l-4.4.77-.46-2.07c-.15.15-.37.34-.65.57a8.49 8.49 0 01-1.76.92 6.84 6.84 0 01-2.72.57 5.26 5.26 0 01-3.77-1.4 5.09 5.09 0 01-1.47-3.89 4.87 4.87 0 01.52-2.32 5.14 5.14 0 011.17-1.53 5.56 5.56 0 012-1 19.65 19.65 0 012.18-.56q.86-.15 2.55-.38l1.68-.23v-.92a3.13 3.13 0 00-.73-2.32 3.26 3.26 0 00-2.34-.71 10.54 10.54 0 00-2.74.36 11.4 11.4 0 00-2 .71l-.65.38v-3.9a16 16 0 016.78-1.15q6.2 0 6.2 6v7.39l.69 4.59zM131.45 42.94a3.93 3.93 0 002.2.61h2.26v-4.9h-2.3q-3.1 0-3.1 2.56a1.94 1.94 0 00.94 1.72zm-6.6 10.3l3.9-7.54a5.88 5.88 0 01-2.07-1.84 4.61 4.61 0 01-.88-2.76 5.08 5.08 0 012.2-4.42 10.69 10.69 0 016.22-1.55h6.28v18.11h-4.59v-6.82h-3l-3 6.81zM27.26 81.07h4.6v14.66h4.98V81.07h4.59v14.66h5.01V81.07H51v18.11H27.26V81.07zM71.59 98.75l-4.9.69-5.13-7.54-1.79 1.99v5.29h-4.6V81.07h4.6v7.89l6.2-7.89h5.09l-6.62 7.73 7.15 9.95zM81.24 84.29q-4.17 0-4.17 5.86T81.24 96q4.21 0 4.21-5.82t-4.21-5.86zm6.39 12.9a8.72 8.72 0 01-6.39 2.3 8.65 8.65 0 01-6.37-2.3q-2.32-2.3-2.32-7t2.32-7.08a8.65 8.65 0 016.37-2.3 8.72 8.72 0 016.39 2.3q2.37 2.25 2.37 7t-2.34 7zM93.84 81.07h15v18.11h-4.59V84.55h-5.82v5.78q0 4.4-1.47 6.6a5.9 5.9 0 01-4.5 2.55l-1.19-3.56q2.57-.5 2.57-4.29zM121.82 91.21l-1.38.23a9.11 9.11 0 00-3.22 1 1.92 1.92 0 00-.88 1.72q0 1.57 2 1.57a5.87 5.87 0 001.63-.25 8.23 8.23 0 001.32-.48l.5-.23v-3.56zm5.18 7.55l-4.4.77-.46-2.07q-.23.23-.65.57a8.47 8.47 0 01-1.76.92 6.85 6.85 0 01-2.72.57 5.26 5.26 0 01-3.77-1.4 5.1 5.1 0 01-1.47-3.89 4.88 4.88 0 01.52-2.32 5.17 5.17 0 011.17-1.53 5.56 5.56 0 012-1 19.58 19.58 0 012.18-.55q.86-.15 2.55-.38l1.68-.23v-.92a3.13 3.13 0 00-.73-2.32 3.26 3.26 0 00-2.34-.71 10.53 10.53 0 00-2.74.36 11.42 11.42 0 00-2 .71l-.65.38v-3.9a16 16 0 016.78-1.15q6.2 0 6.2 6v7.39l.69 4.59zM41.58 143.39a10 10 0 01-6.32 2.1 21.47 21.47 0 01-4.63-.5 16.24 16.24 0 01-3.29-1l-1.07-.5 1-4.44a12.69 12.69 0 001.19.65 21.33 21.33 0 002.81 1 13 13 0 003.81.63 4.37 4.37 0 003-.94 3.06 3.06 0 001-2.39 2.52 2.52 0 00-1-2.12 13.73 13.73 0 00-4-1.63q-4.44-1.34-6.18-3a6.78 6.78 0 01-1.74-5.09 7.41 7.41 0 01.8-3.56 5.61 5.61 0 012.18-2.28 10.47 10.47 0 012.95-1.13 15.92 15.92 0 013.41-.34 17.81 17.81 0 013.89.42 13.92 13.92 0 012.78.84l.92.42-.88 4.36a10.32 10.32 0 00-1-.57 15.37 15.37 0 00-2.37-.92 10.86 10.86 0 00-3.37-.57 4.73 4.73 0 00-3 .77 2.91 2.91 0 00-.92 2.37 2.5 2.5 0 001.17 2.2 15.73 15.73 0 004.08 1.63 14.63 14.63 0 015.78 2.76q1.68 1.57 1.68 5a7 7 0 01-2.72 5.82zM74.85 119.28l-.46 5.2v20.64H69.3v-17.31l-8.88 13.94-8.73-12.71v16.08h-4.14v-21.98l-2.25-3.44 5.89-.92 9.91 15.08 8.96-14.58h4.79zM106.55 119.28l-.46 5.2v20.64h-5.1v-17.31l-8.88 13.94-8.72-12.71v16.08h-4.14v-21.98l-2.26-3.44 5.9-.92 9.91 15.08 8.96-14.58h4.79z"/><path d="M8.5 164.4h198.43V8.5H8.5zm206.93 8.5H0V0h215.43z"/></svg>