<svg xmlns="http://www.w3.org/2000/svg" viewBox="0 0 1050.11 218.95"><path d="M4.31,0h1045.8V219H0V0ZM1041.49,8.62H8.62V210.33H1041.49Z"/><path d="M198,74.94H149.3v61.4h12.22V84.13h24.25v52.21H198Zm47.12,37.45c0-13.19-6.21-19.81-18.56-19.81-5.7,0-10.35,1.83-13.94,5.53s-5.36,9.3-5.36,16.76q0,22.19,22.18,22.19c5.16,0,9.37-.72,12.56-2.17v-9.4l-1.46.85a19.51,19.51,0,0,1-4.45,1.42,26.38,26.38,0,0,1-6.37.75c-7,0-10.86-3.29-11.44-9.91l26.63-1.08Zm-26.94-1.52c.48-6.62,3.39-9.91,8.72-9.91,5.09,0,7.67,3,7.67,9.09Zm74,4q0-11.1-5.09-16.69a16.79,16.79,0,0,0-18.8-4.38,17.47,17.47,0,0,0-4,2L262.82,97l-1.09-4.55-10.45,1.83,1.63,10.92V154.7h10.82V135.33l1,.44a14.33,14.33,0,0,0,3.09.88,22.32,22.32,0,0,0,4.27.41c6.11,0,11-1.84,14.59-5.47S292.13,122.37,292.13,114.87Zm-10.76,0q0,13.53-9.9,13.54a17,17,0,0,1-7.74-1.53V104l1-.55a20.28,20.28,0,0,1,3-1.15,13.76,13.76,0,0,1,3.7-.58Q281.39,101.67,281.37,114.87Zm54.05,7.36a8.93,8.93,0,0,0-2.11-6,11.25,11.25,0,0,0-5.19-3.46c3.36-2.48,5-5.23,5-8.18q0-11.3-16.38-11.3H300.3v43.05h14.56c6.48,0,11.53-1.25,15.13-3.69A11.85,11.85,0,0,0,335.42,122.23ZM323,106.12c0,1.76-1.15,3.39-3.46,4.81h-8.34V101.4h6.34a5.82,5.82,0,0,1,4,1.26A4.34,4.34,0,0,1,323,106.12Zm1.19,16.48c0,3.63-2.51,5.47-7.53,5.47h-5.46V117.79h6.82c.23,0,.57,0,1.05,0a7.46,7.46,0,0,1,1.15.17l1.19.34a2.09,2.09,0,0,1,1.08.58,8.83,8.83,0,0,1,.85.88,2.63,2.63,0,0,1,.61,1.15A5.17,5.17,0,0,1,324.22,122.6Zm50.31,1.8V106.86q0-14.4-14.76-14.38-10.42,0-16.08,2.75v9.26l1.53-.92a28.92,28.92,0,0,1,4.88-1.66,24.81,24.81,0,0,1,6.52-.88c2.54,0,4.37.57,5.53,1.69s1.73,3,1.73,5.5v2.17l-4,.54c-2.68.38-4.68.68-6,.92a46,46,0,0,0-5.19,1.32,13,13,0,0,0-4.69,2.28,12.81,12.81,0,0,0-2.78,3.63,11.81,11.81,0,0,0-1.22,5.53c0,3.93,1.15,7,3.5,9.22a12.52,12.52,0,0,0,9,3.33,16.35,16.35,0,0,0,6.48-1.39,19.56,19.56,0,0,0,4.17-2.17,20.66,20.66,0,0,0,1.56-1.36l1.09,4.92,10.45-1.83Zm-10.65,1.36-1.19.58a23.36,23.36,0,0,1-3.12,1.12,13.92,13.92,0,0,1-3.87.61c-3.22,0-4.82-1.26-4.82-3.74a4.57,4.57,0,0,1,2.07-4.1c1.4-.92,4-1.66,7.67-2.27l3.26-.55Zm28.39,10.58,7.16-16.21h7.19v16.21h10.93v-43H402.62c-6.34,0-11.3,1.26-14.76,3.7a12.1,12.1,0,0,0-5.26,10.52,11.1,11.1,0,0,0,2.11,6.55,13.57,13.57,0,0,0,4.92,4.34l-9.3,17.94Zm1.53-28.56c0-4.07,2.48-6.11,7.36-6.11h5.46v11.64h-5.36a9.25,9.25,0,0,1-5.22-1.46A4.59,4.59,0,0,1,393.8,107.78Zm53.67,28.56h56.38v-43H493v34.84H481.12V93.29H470.2v34.84H458.39V93.29H447.47Zm88.31-24.66,15.74-18.39H539.44l-14.76,18.76V93.29H513.79v43.05h10.89V123.79L529,119,541.17,137l11.64-1.62Zm60.69,3.19c0-7.6-1.87-13.2-5.57-16.83s-8.75-5.46-15.2-5.46S564.24,94.41,560.57,98s-5.49,9.23-5.49,16.83,1.83,13.09,5.49,16.72,8.72,5.47,15.13,5.47,11.51-1.84,15.2-5.47S596.47,122.37,596.47,114.87Zm-10.76,0c0,9.19-3.32,13.81-10,13.81s-9.9-4.62-9.9-13.81S569.12,101,575.7,101,585.71,105.57,585.71,114.87Zm19.92,3.53c0,6-2,9.39-6.08,10.21l2.82,8.45c4.78-.55,8.35-2.58,10.69-6s3.49-8.72,3.49-15.71V101.57h13.74v34.77h10.92v-43H605.63Zm77.14,6V106.86q0-14.4-14.72-14.38c-7,0-12.35.92-16.12,2.75v9.26l1.56-.92a28.59,28.59,0,0,1,4.86-1.66,25.13,25.13,0,0,1,6.51-.88c2.54,0,4.38.57,5.53,1.69s1.73,3,1.73,5.5v2.17l-4,.54c-2.65.38-4.69.68-6,.92a46,46,0,0,0-5.19,1.32,13.58,13.58,0,0,0-4.68,2.28,13.2,13.2,0,0,0-2.79,3.63,11.81,11.81,0,0,0-1.22,5.53c0,3.93,1.19,7,3.5,9.22a12.55,12.55,0,0,0,9,3.33,16.28,16.28,0,0,0,6.44-1.39,18.94,18.94,0,0,0,4.18-2.17c.67-.55,1.18-1,1.56-1.36l1.08,4.92,10.45-1.83Zm-10.65,1.36-1.19.58a23.36,23.36,0,0,1-3.12,1.12,13.75,13.75,0,0,1-3.87.61c-3.22,0-4.81-1.26-4.81-3.74a4.59,4.59,0,0,1,2.1-4.1c1.39-.92,3.93-1.66,7.63-2.27l3.26-.55Zm80.77-7.36c0-5.46-1.32-9.43-4-11.91s-7.22-4.68-13.74-6.55c-4.58-1.32-7.84-2.61-9.67-3.86a6,6,0,0,1-2.78-5.23c0-2.54.71-4.44,2.17-5.63s3.87-1.83,7.19-1.83a26.64,26.64,0,0,1,8,1.35A36.76,36.76,0,0,1,745.7,87,26.27,26.27,0,0,1,748,88.31l2.1-10.38-2.17-1a30.5,30.5,0,0,0-6.62-2,41.45,41.45,0,0,0-9.23-1,37.2,37.2,0,0,0-8.07.82,25,25,0,0,0-7,2.68,13.57,13.57,0,0,0-5.19,5.42,17.83,17.83,0,0,0-1.9,8.45c0,5.4,1.39,9.43,4.14,12.11s7.66,5.06,14.69,7.2c4.78,1.39,8,2.68,9.49,3.86a5.91,5.91,0,0,1,2.35,5,7.34,7.34,0,0,1-2.51,5.7c-1.67,1.5-4,2.24-7.16,2.24a31.33,31.33,0,0,1-9-1.49,50,50,0,0,1-6.68-2.44c-1.22-.58-2.17-1.12-2.85-1.53l-2.27,10.55,2.54,1.19a40,40,0,0,0,7.84,2.34,49.61,49.61,0,0,0,11,1.19,24,24,0,0,0,15-5C750.76,128.91,752.89,124.3,752.89,118.4Zm61.24-43.46-21.31,34.64L769.28,73.75l-14,2.17,5.36,8.21v52.21h9.84V98.11l20.73,30.23,21.1-33.11v41.11h12.11v-49l1.08-12.35Zm75.31,0-21.3,34.64L844.59,73.75l-14,2.17,5.36,8.21v52.21h9.84V98.11l20.73,30.23,21.1-33.11v41.11h12.08v-49l1.12-12.35Z"/></svg>