<svg xmlns="http://www.w3.org/2000/svg" viewBox="0 0 50 50"><path d="M31.7 24.2c-1.2-1.9-2.7-3.3-5.8-3.3-2.6 0-4.2 1.4-5.4 2.9-2.9 3.5-3.8 9.1-11.7 10-2.8.3-5.2.2-7.3-.3a24.96 24.96 0 0036.7 12.7c-2.7-3.1-4.4-7-4.9-12.1-.2-2.7.2-7.1-1.6-9.9z" fill="#ff5968"/><path d="M42.9 22.1c-2.6-10.4-10.4-13.7-21.7-15-4.5-.5-7.4-1.8-9.3-3.4A25.08 25.08 0 000 25c0 3 .5 5.8 1.5 8.5 2.1.4 4.5.6 7.3.3 7.9-.9 8.8-6.5 11.7-10 1.2-1.5 2.8-2.9 5.4-2.9 3.2 0 4.7 1.5 5.8 3.3 1.8 2.8 1.4 7.2 1.7 10 .4 5 2.1 8.9 4.9 12.1 1.5-.9 2.9-2 4.2-3.3-.9-6.5 2.5-12.7.4-20.9z" fill="#2caef6"/><path d="M50 25A25 25 0 0025 0c-4.8 0-9.3 1.3-13 3.7 1.9 1.6 4.8 2.9 9.3 3.4 11.2 1.2 19.1 4.6 21.7 15 2.1 8.2-1.3 14.4-.5 20.9 4.6-4.6 7.5-11 7.5-18z" fill="#fdc260"/><path d="M25 40c8.3 0 15-6.7 15-15s-6.7-15-15-15-15 6.7-15 15v20a27 27 0 006.7 3.6V37.5c2.4 1.6 5.2 2.5 8.3 2.5zm0-23.3c4.6 0 8.3 3.7 8.3 8.3 0 4.6-3.7 8.3-8.3 8.3-4.6 0-8.3-3.7-8.3-8.3 0-4.6 3.7-8.3 8.3-8.3z" fill="#fff"/></svg>