<svg width="85" height="86" fill="none" xmlns="http://www.w3.org/2000/svg"><path d="M39.76 12.26L39.85 0l3.9 7.9c.2.4.48.72.85.96L70.98 24c1.54.85 2.27 1.99 2.3 3.37v11.64l-3.31-.02V29.3c0-.8-.26-1.94-1.47-2.89L44.8 12.26a5.42 5.42 0 00-5.03 0zM44.79 73.74L44.7 86l-3.9-7.9a2.3 2.3 0 00-.85-.96L13.57 62c-1.54-.85-2.27-1.99-2.29-3.37V46.99l3.31.02v9.69c0 .8.26 1.94 1.46 2.89l23.71 14.15c1.27.71 3.26.93 5.03 0zM14.68 45.22L0 45.2l11.2-4.82.08-11.54c-.01-2 .95-3.67 2.97-5l23.08-13.82.94-.58v3.89L16.7 26.17c-1.34.78-1.99 2.02-1.96 3.73l-.07 15.32zM69.9 40.85l14.67.01-11.2 4.82-.08 11.54c0 2-.95 3.68-2.97 5L47.24 76.05l-.93.55v-3.86l21.55-12.85c1.34-.77 1.99-2.01 1.96-3.73l.07-15.31z" fill="#fff"/><path d="M66.23 27.23L44.61 14.36a4.99 4.99 0 00-4.67 0L18.3 27.23a3.54 3.54 0 00-1.82 3.01v25.5a3.5 3.5 0 001.82 3.02l21.63 12.87c1.44.77 3.23.77 4.67 0l21.62-12.87a3.54 3.54 0 001.83-3.01v-25.5a3.53 3.53 0 00-1.83-3.02zM21.46 52.42c-1.73-.74-1.76-2.24-.63-3.6l.49-.47c.22-.26-.07-.8-.34-1.29-.7-2.43 10.65-9.19 12.62-9.66 0 0-3.92 2.88.13 6.43 3.75 3.27 12.57 3.52 12.57 3.52-14.38.02-25.32.76-24.84 5.07zm29.34-8.55c-4.2.22-4.5 1.98-4.5 1.98-5.69-.5-8.15-1.47-8.15-1.47 3.18-2.94 12.84-2.98 20.24-.5.01 0-1.01-.35-7.59 0zm-9.91-2.94c-.88.18-3.95.78-5.2 2.35 0 0-1.49-.97-1.74-1.85a3.3 3.3 0 012.32-4.12c12.05-2.66 25.85 6.48 25.85 6.48-6.12-2.37-13.77-4.45-21.23-2.86zm-10.45-3.88s.3-1.2-.43-1.77c-1.2-.92-4.43-.26-4.43-.26 16.7-7.7 34.55 2.05 40.52 9.89 0 .01-19.17-15.02-35.66-7.86z" fill="#fff"/><path d="M22.99 45.6c-.09-.05-.54.1-.87.65-.44.74-.22 1.48-.22 1.48.26-.07 1.02-.58 1.09-.92.1-.46.14-1.1 0-1.2z" fill="#fff"/></svg>